<?xml version="1.0" encoding="UTF-8" standalone="no"?>
<!-- Created with Inkscape (http://www.inkscape.org/) -->

<svg
   xmlns:dc="http://purl.org/dc/elements/1.1/"
   xmlns:cc="http://creativecommons.org/ns#"
   xmlns:rdf="http://www.w3.org/1999/02/22-rdf-syntax-ns#"
   xmlns:svg="http://www.w3.org/2000/svg"
   xmlns="http://www.w3.org/2000/svg"
   xmlns:xlink="http://www.w3.org/1999/xlink"
   xmlns:sodipodi="http://sodipodi.sourceforge.net/DTD/sodipodi-0.dtd"
   xmlns:inkscape="http://www.inkscape.org/namespaces/inkscape"
   width="32"
   height="32"
   id="svg2"
   sodipodi:version="0.32"
   inkscape:version="0.91 r13725"
   version="1.0"
   sodipodi:docname="help_header_logo.svg"
   inkscape:export-filename="/home/donn/Projects/pythoning/fontyPython/fp/fplogo.png"
   inkscape:export-xdpi="89.985931"
   inkscape:export-ydpi="89.985931"
   inkscape:output_extension="org.inkscape.output.svg.inkscape">
  <sodipodi:namedview
     id="base"
     pagecolor="#ffffff"
     bordercolor="#666666"
     borderopacity="1.0"
     gridtolerance="10000"
     guidetolerance="6.1"
     objecttolerance="10"
     inkscape:pageopacity="1"
     inkscape:pageshadow="2"
     inkscape:zoom="0.864"
     inkscape:cx="619.47659"
     inkscape:cy="-433.24818"
     inkscape:document-units="px"
     inkscape:current-layer="layer1"
     width="32px"
     height="32px"
     inkscape:window-width="1920"
     inkscape:window-height="1056"
     inkscape:window-x="0"
     inkscape:window-y="24"
     showguides="false"
     inkscape:guide-bbox="true"
     inkscape:object-points="false"
     inkscape:grid-points="false"
     inkscape:guide-points="false"
     showgrid="false"
     inkscape:window-maximized="1">
    <sodipodi:guide
       orientation="horizontal"
       position="28.9375"
       id="guide1946" />
    <sodipodi:guide
       orientation="horizontal"
       position="26.666667"
       id="guide1948" />
    <sodipodi:guide
       orientation="horizontal"
       position="20.716253"
       id="guide1950" />
    <sodipodi:guide
       orientation="horizontal"
       position="7.8359375"
       id="guide1956" />
    <sodipodi:guide
       orientation="horizontal"
       position="14.953125"
       id="guide1958" />
    <sodipodi:guide
       orientation="horizontal"
       position="21.820312"
       id="guide1960" />
  </sodipodi:namedview>
  <defs
     id="defs4">
    <linearGradient
       id="linearGradient3660">
      <stop
         id="stop3662"
         offset="0"
         style="stop-color:#414e54;stop-opacity:1;" />
      <stop
         id="stop3664"
         offset="1"
         style="stop-color:#768b94;stop-opacity:0;" />
    </linearGradient>
    <linearGradient
       id="linearGradient3648">
      <stop
         style="stop-color:#b1bdc2;stop-opacity:1;"
         offset="0"
         id="stop3650" />
      <stop
         style="stop-color:#768b94;stop-opacity:0;"
         offset="1"
         id="stop3652" />
    </linearGradient>
    <filter
       inkscape:collect="always"
       id="filter6603">
      <feGaussianBlur
         inkscape:collect="always"
         stdDeviation="3.6225052"
         id="feGaussianBlur6605" />
    </filter>
    <filter
       inkscape:collect="always"
       id="filter5563">
      <feGaussianBlur
         inkscape:collect="always"
         stdDeviation="1.8143196"
         id="feGaussianBlur5565" />
    </filter>
    <filter
       inkscape:collect="always"
       id="filter6587">
      <feGaussianBlur
         inkscape:collect="always"
         stdDeviation="4.3543671"
         id="feGaussianBlur6589" />
    </filter>
    <inkscape:perspective
       sodipodi:type="inkscape:persp3d"
       inkscape:vp_x="0 : 16 : 1"
       inkscape:vp_y="0 : 1000 : 0"
       inkscape:vp_z="32 : 16 : 1"
       inkscape:persp3d-origin="16 : 10.666667 : 1"
       id="perspective92" />
    <clipPath
       clipPathUnits="userSpaceOnUse"
       id="clipPath3714">
      <rect
         style="fill:#768b94;fill-opacity:1;stroke:#ffffff;stroke-width:0.89916426;stroke-linejoin:round;stroke-miterlimit:4;stroke-dasharray:none;stroke-opacity:1"
         id="rect3716"
         width="216.70116"
         height="225.37424"
         x="-497.9292"
         y="-180.80663"
         rx="4.1612115"
         ry="4.161212"
         inkscape:export-filename="/home/donn/Projects/pythoning/fontyPython/dev/dev-dec-2007/trunk/fontypython/things/aboutfplogo.png"
         inkscape:export-xdpi="89.985931"
         inkscape:export-ydpi="89.985931"
         transform="translate(271,-6)" />
    </clipPath>
    <filter
       inkscape:collect="always"
       id="filter3294">
      <feGaussianBlur
         inkscape:collect="always"
         stdDeviation="1.3272304"
         id="feGaussianBlur3296" />
    </filter>
    <filter
       inkscape:collect="always"
       style="color-interpolation-filters:sRGB"
       id="filter4705"
       x="-0.024146591"
       width="1.0482932"
       y="-0.064931614"
       height="1.1298632">
      <feGaussianBlur
         inkscape:collect="always"
         stdDeviation="1.3890459"
         id="feGaussianBlur4707" />
    </filter>
    <filter
       inkscape:collect="always"
       style="color-interpolation-filters:sRGB"
       id="filter4709"
       x="-0.018108207"
       width="1.0362164"
       y="-0.065641653"
       height="1.1312833">
      <feGaussianBlur
         inkscape:collect="always"
         stdDeviation="1.3890459"
         id="feGaussianBlur4711" />
    </filter>
  </defs>
  <metadata
     id="metadata7">
    <rdf:RDF>
      <cc:Work
         rdf:about="">
        <dc:format>image/svg+xml</dc:format>
        <dc:type
           rdf:resource="http://purl.org/dc/dcmitype/StillImage" />
        <dc:title />
      </cc:Work>
    </rdf:RDF>
  </metadata>
  <g
     inkscape:label="Layer 1"
     inkscape:groupmode="layer"
     id="layer1"
     style="display:inline">
    <rect
       style="color:#000000;display:inline;overflow:visible;visibility:visible;opacity:1;fill:#90a1a8;fill-opacity:1;fill-rule:nonzero;stroke:none;stroke-width:2;stroke-linecap:butt;stroke-linejoin:miter;stroke-miterlimit:4;stroke-dasharray:none;stroke-dashoffset:0;stroke-opacity:1;marker:none;marker-start:none;marker-mid:none;marker-end:none;enable-background:accumulate"
       id="rect3443"
       width="430"
       height="125"
       x="-188.11903"
       y="155.17436" />
    <path
       sodipodi:nodetypes="ccccccccccccccccccccccccccccccccccccc"
       id="rect3298"
       d="M -229.43958,120.77494 C -229.43958,120.77494 439.8975,120.6445 439.8975,120.6445 C 439.8975,120.6445 440.12455,333.38646 440.12455,333.38646 C 440.12455,333.38646 -227.06799,334.02909 -227.06799,334.02909 C -227.06799,334.02909 -227.50134,327.99649 -227.50134,327.99649 C -227.50134,327.99649 -225.9292,321.33631 -225.9292,321.33631 C -225.9292,321.33631 -226.96121,313.65788 -226.96121,313.65788 C -226.96121,313.65788 -226.98731,307.21234 -226.98731,307.21234 C -226.98731,307.21234 -227.00299,300.54762 -227.00299,300.54762 C -227.00299,300.54762 -228.20403,292.35525 -228.20403,292.35525 C -228.20403,292.35525 -228.01838,286.96767 -228.01838,286.96767 C -228.01838,286.96767 -228.72082,280.81003 -228.72082,280.81003 C -228.72082,280.81003 -226.70125,273.84428 -226.70125,273.84428 C -226.70125,273.84428 -228.65145,267.06346 -228.65145,267.06346 C -228.65145,267.06346 -227.20932,260.53092 -227.20932,260.53092 C -227.20932,260.53092 -228.58806,253.60098 -228.58806,253.60098 C -228.58806,253.60098 -228.23111,247.70786 -228.23111,247.70786 C -228.23111,247.70786 -228.03328,239.09588 -228.03328,239.09588 C -228.03328,239.09588 -228.68976,235.59448 -228.68976,235.59448 C -228.68976,235.59448 -226.3259,226.20576 -226.3259,226.20576 C -226.3259,226.20576 -227.14933,220.5651 -227.14933,220.5651 C -227.14933,220.5651 -226.96877,213.84784 -226.96877,213.84784 C -226.96877,213.84784 -227.34172,206.61409 -227.34172,206.61409 C -227.34172,206.61409 -229.04991,198.47961 -229.04991,198.47961 C -229.04991,198.47961 -226.97496,193.58914 -226.97496,193.58914 C -226.97496,193.58914 -227.22361,186.60982 -227.22361,186.60982 C -227.22361,186.60982 -227.13315,182.91904 -227.13315,182.91904 C -227.13315,182.91904 -227.77147,173.4932 -227.77147,173.4932 C -227.77147,173.4932 -226.04858,165.7834 -226.04858,165.7834 C -226.04858,165.7834 -227.83045,158.09025 -227.83045,158.09025 C -227.83045,158.09025 -227.81664,151.69683 -227.81664,151.69683 C -227.81664,151.69683 -227.62067,149.72287 -227.62067,149.72287 C -227.62067,149.72287 -228.39939,139.68638 -228.39939,139.68638 C -228.39939,139.68638 -226.52506,131.36698 -226.52506,131.36698 C -226.52506,131.36698 -224.48569,126.70102 -224.48569,126.70102 C -224.48569,126.70102 -227.35156,121.15187 -227.35156,121.15187 C -227.35156,121.15187 -228.58349,120.6445 -228.58349,120.6445"
       style="opacity:0.8;fill:#768b94;fill-opacity:1;fill-rule:evenodd;stroke:none;stroke-width:1;stroke-linecap:round;stroke-linejoin:round;marker:none;marker-start:none;marker-mid:none;marker-end:none;stroke-miterlimit:3;stroke-dashoffset:0;stroke-opacity:1;visibility:visible;display:inline;overflow:visible;enable-background:accumulate"
       transform="matrix(1.1352628,0,0,0.9143958,686.76797,-220.28905)" />
    <text
       inkscape:transform-center-y="53.576692"
       inkscape:transform-center-x="-71.502663"
       transform="matrix(0.8027917,0.60152861,-0.61570472,0.78430806,0,0)"
       sodipodi:linespacing="100%"
       id="text2539"
       y="285.93658"
       x="-90.194992"
       style="font-style:normal;font-variant:normal;font-weight:400;font-stretch:normal;font-size:105.46778107px;line-height:100%;font-family:'IM FELL FLOWERS 2';-inkscape-font-specification:'Bitstream Vera Sans';text-indent:0;text-align:center;text-decoration:none;text-decoration-line:none;letter-spacing:normal;word-spacing:normal;text-transform:none;direction:ltr;block-progression:tb;writing-mode:lr-tb;text-anchor:start;display:inline;overflow:visible;visibility:visible;fill:#ffffff;fill-opacity:1;fill-rule:nonzero;stroke:none;stroke-width:0;stroke-linecap:butt;stroke-linejoin:miter;stroke-miterlimit:0;stroke-dasharray:none;stroke-dashoffset:0;stroke-opacity:1;marker:none;marker-start:none;marker-mid:none;marker-end:none;enable-background:accumulate"
       xml:space="preserve"><tspan
         y="285.93658"
         x="-90.194992"
         id="tspan2541"
         sodipodi:role="line">a</tspan></text>
    <path
       transform="translate(-1008.0347,381.01958)"
       style="font-size:39.99996948px;font-style:normal;font-variant:normal;font-weight:normal;font-stretch:normal;text-align:start;line-height:125%;writing-mode:lr-tb;text-anchor:start;fill-opacity:1;stroke:none;stroke-width:4.53122997;stroke-linecap:butt;stroke-linejoin:miter;stroke-miterlimit:4;stroke-dasharray:none;stroke-opacity:1;display:inline;font-family:Frozen Dog Treats"
       d="M 908.79657,-397.37303 C 896.12437,-396.9249 885.26297,-393.94861 876.32927,-388.12654 C 866.65067,-381.81888 860.53507,-373.21207 858.08317,-362.26317 L 840.77627,-287.08521 L 880.35417,-287.08521 L 885.04987,-307.05226 L 906.11327,-307.05226 L 921.81027,-307.05226 C 934.36807,-307.05226 962.20517,-308.92326 967.42547,-335.46176 L 971.85277,-362.12917 C 974.79017,-384.96744 961.81887,-396.19245 938.04387,-397.50704 L 926.77427,-397.50704 L 912.01637,-397.50704 L 908.79657,-397.37303 z M 904.10087,-367.08744 L 919.79787,-367.08744 L 938.98307,-367.08744 L 933.21407,-341.09006 C 932.62267,-338.71029 929.44157,-337.59526 927.84757,-337.60587 L 913.08967,-337.60587 L 892.02617,-337.60587 L 897.79517,-362.26317 C 898.18227,-364.40528 898.76497,-365.67326 899.53927,-366.14938 C 900.33487,-366.67341 901.90987,-367.02355 904.10087,-367.08744 z"
       id="path1917"
       sodipodi:nodetypes="csccccccccccccccccccccsc"
       inkscape:export-filename="/home/donn/Projects/pythoning/fontyPython/designfiles/biglogo.png"
       inkscape:export-xdpi="89.985931"
       inkscape:export-ydpi="89.985931" />
    <g
       id="g3403"
       transform="matrix(0.8524496,0,0,0.83904938,-40.740078,22.098662)">
      <g
         id="g2628"
         transform="translate(0,-3)">
        <g
           style="fill:#000000;fill-opacity:0.53617021;filter:url(#filter3294)"
           transform="matrix(1.5690614,0,0.00820257,1.5690614,-3062.9466,-1001.3297)"
           id="g2514">
          <text
             sodipodi:linespacing="110%"
             id="text2516"
             y="796.29364"
             x="2069.134"
             style="font-style:normal;font-variant:normal;font-weight:800;font-stretch:normal;font-size:40.43667984px;line-height:110.00000238%;font-family:BlendfontsMonokultur;-inkscape-font-specification:'BlendfontsMonokultur Ultra-Bold';text-align:start;writing-mode:lr-tb;text-anchor:start;fill:#000000;fill-opacity:0.53617021;stroke:none;stroke-width:1.5;stroke-linecap:butt;stroke-linejoin:miter;stroke-miterlimit:4;stroke-dasharray:none;stroke-opacity:1"
             xml:space="preserve"
             transform="matrix(1,0,-0.1880747,1,0,0)"><tspan
               dy="0 0 0 0 -0.18470658"
               y="796.29364"
               x="2069.134"
               id="tspan2518"
               sodipodi:role="line"
               dx="0 -3.6128471 -3.0503321 -2.1848986 -0.26893279">Fonty</tspan></text>
          <text
             xml:space="preserve"
             style="font-style:normal;font-variant:normal;font-weight:800;font-stretch:normal;font-size:40.43667984px;line-height:110.00000238%;font-family:BlendfontsMonokultur;-inkscape-font-specification:'BlendfontsMonokultur Ultra-Bold';text-align:start;writing-mode:lr-tb;text-anchor:start;fill:#000000;fill-opacity:0.53617021;stroke:none;stroke-width:1.5;stroke-linecap:butt;stroke-linejoin:miter;stroke-miterlimit:4;stroke-dasharray:none;stroke-opacity:1"
             x="2069.0386"
             y="828.6283"
             id="text2520"
             sodipodi:linespacing="110%"
             transform="matrix(1,0,-0.1880747,1,100.87061,-32.092115)"><tspan
               sodipodi:role="line"
               id="tspan2522"
               x="2069.0386"
               y="828.6283"
               dx="0 -1.4935142 5.7280399e-08 -0.7574861 -3.0768514 -3.4490631">Python</tspan></text>
        </g>
        <g
           id="g4570"
           transform="matrix(1.5690614,0,0.00820257,1.5690614,-3066.9466,-1005.3297)">
          <text
             transform="matrix(1,0,-0.1880747,1,0,0)"
             xml:space="preserve"
             style="font-style:normal;font-variant:normal;font-weight:800;font-stretch:normal;font-size:40.43667984px;line-height:110.00000238%;font-family:BlendfontsMonokultur;-inkscape-font-specification:'BlendfontsMonokultur Ultra-Bold';text-align:start;writing-mode:lr-tb;text-anchor:start;fill:#dbdee3;fill-opacity:1;stroke:none;stroke-width:1.5;stroke-linecap:butt;stroke-linejoin:miter;stroke-miterlimit:4;stroke-dasharray:none;stroke-opacity:1"
             x="2069.134"
             y="796.29364"
             id="text4525"
             sodipodi:linespacing="110%"><tspan
               dx="0 -3.6128471 -3.0503321 -2.1848986 -0.26893279"
               sodipodi:role="line"
               id="tspan4527"
               x="2069.134"
               y="796.29364"
               dy="0 0 0 0 -0.18470658">Fonty</tspan></text>
          <text
             transform="matrix(1,0,-0.1880747,1,100.87061,-32.092115)"
             sodipodi:linespacing="110%"
             id="text4529"
             y="828.6283"
             x="2069.0386"
             style="font-style:normal;font-variant:normal;font-weight:800;font-stretch:normal;font-size:40.43667984px;line-height:110.00000238%;font-family:BlendfontsMonokultur;-inkscape-font-specification:'BlendfontsMonokultur Ultra-Bold';text-align:start;writing-mode:lr-tb;text-anchor:start;fill:#ffffff;fill-opacity:1;stroke:none;stroke-width:1.5;stroke-linecap:butt;stroke-linejoin:miter;stroke-miterlimit:4;stroke-dasharray:none;stroke-opacity:1"
             xml:space="preserve"><tspan
               dx="0.88517177 -1.4935142 5.7280399e-08 -0.7574861 -3.0768514 -3.4490631"
               y="828.6283"
               x="2069.0386"
               id="tspan4531"
               sodipodi:role="line">Python</tspan></text>
        </g>
      </g>
      <g
         id="g2587"
         transform="translate(-486.58333,-4.2222222)">
        <use
           x="0"
           y="0"
           xlink:href="#path1917"
           id="use2551"
           transform="matrix(0.71325,0,0,0.71325,465.97126,196.58107)"
           width="744.09448"
           height="1052.3622"
           style="filter:url(#filter6587)" />
        <use
           style="filter:url(#filter6587)"
           height="1052.3622"
           width="744.09448"
           transform="matrix(0.71325,0,0,0.71325,465.97126,196.58107)"
           id="use2553"
           xlink:href="#path1917"
           y="0"
           x="0" />
        <path
           transform="matrix(0.53865,0,0,0.53865,207.79141,6.462195)"
           style="font-style:normal;font-variant:normal;font-weight:normal;font-stretch:normal;font-size:39.99996948px;line-height:125%;font-family:'Frozen Dog Treats';text-align:start;writing-mode:lr-tb;text-anchor:start;fill:#999999;fill-opacity:1;stroke:#ffffff;stroke-width:7.094522;stroke-linecap:butt;stroke-linejoin:miter;stroke-miterlimit:4;stroke-dasharray:none;stroke-opacity:1"
           d="m 340.91504,322.40236 c -16.7798,0.59339 -31.16187,4.53442 -42.99135,12.24368 -12.81594,8.35225 -20.91386,19.74891 -24.16043,34.24682 l -22.91692,99.54644 52.40681,0 6.21777,-26.43925 27.8911,0 20.78503,0 c 16.62838,0 53.48872,-2.47747 60.40108,-37.61827 l 5.86244,-35.31148 c 3.88956,-30.24115 -13.28628,-45.10468 -44.76785,-46.84539 l -14.92258,0 -19.5415,0 -4.2636,0.17745 z m -6.21778,40.10248 20.78509,0 25.40395,0 -7.63895,34.42427 c -0.78301,3.15115 -4.99529,4.62761 -7.10603,4.61356 l -19.5415,0 -27.89111,0 7.63901,-32.64981 c 0.51249,-2.83646 1.28406,-4.51545 2.30944,-5.1459 1.05341,-0.69389 3.1389,-1.15753 6.0401,-1.24212 z"
           id="path2557"
           sodipodi:nodetypes="csccccccccccccccccccccsc"
           inkscape:export-filename="/home/donn/Projects/pythoning/fontyPython/designfiles/biglogo.png"
           inkscape:export-xdpi="89.985931"
           inkscape:export-ydpi="89.985931"
           inkscape:connector-curvature="0" />
        <path
           transform="matrix(3.6169615,0,0,3.6122709,334.68954,163.33399)"
           sodipodi:nodetypes="ccccccccccc"
           id="path2561"
           d="m 8.3440419,22.435837 9.8970071,0 c 2.476349,0 7.968655,-0.374557 8.998064,-5.614634 l 0.891891,-5.262158 C 28.710243,7.0495857 26.135075,4.8283208 21.446736,4.5687527 l -5.759445,0.013441 -0.924303,6.0128143 6.88638,0 -1.139939,5.134561 c -0.116604,0.469889 -0.746073,0.682109 -1.06041,0.680013 l -12.012801,0.0138"
           style="font-style:normal;font-variant:normal;font-weight:normal;font-stretch:normal;font-size:39.99996948px;line-height:125%;font-family:'Frozen Dog Treats';text-align:start;writing-mode:lr-tb;text-anchor:start;fill:#768b94;fill-opacity:1;stroke:none;stroke-width:1px;stroke-linecap:butt;stroke-linejoin:miter;stroke-opacity:1"
           inkscape:connector-curvature="0" />
        <path
           transform="matrix(3.6169615,0,0,3.6122709,334.68954,163.33399)"
           style="font-style:normal;font-variant:normal;font-weight:normal;font-stretch:normal;font-size:36.68085098px;line-height:125%;font-family:'Frozen Dog Treats';text-align:start;writing-mode:lr-tb;text-anchor:start;fill:#090a0a;fill-opacity:1;stroke:none;stroke-width:1px;stroke-linecap:butt;stroke-linejoin:miter;stroke-opacity:1"
           d="m 15.160497,22.43986 -4.156469,0 -0.916118,3.947813 -7.8251777,0 L 5.6981761,11.54813 C 6.1816747,9.3862509 7.3777168,7.682584 9.2863062,6.4371248 11.194873,5.1917055 13.536061,4.5689858 16.309881,4.568964 l 2.928363,-2.113e-4 -1.374178,6.0262553 -2.934977,0 c -0.534419,1.6e-5 -0.884073,0.06018 -1.062191,0.17766 -0.152702,0.09401 -0.267217,0.352498 -0.343545,0.775462 l -1.145147,4.864269 4.156468,0 -1.374177,6.027461"
           id="path2563"
           sodipodi:nodetypes="cccccsccccscccc"
           inkscape:connector-curvature="0" />
        <path
           transform="matrix(0.71325,0,0,0.71325,964.53825,168.44127)"
           style="font-style:normal;font-variant:normal;font-weight:normal;font-stretch:normal;font-size:39.99996948px;line-height:125%;font-family:'Frozen Dog Treats';text-align:start;writing-mode:lr-tb;text-anchor:start;opacity:0.33699999;fill:#ffffff;fill-opacity:1;stroke:none;stroke-width:4.53122997;stroke-linecap:butt;stroke-linejoin:miter;stroke-miterlimit:4;stroke-opacity:1;filter:url(#filter5563)"
           d="m -802.94733,20.284783 c -11.89878,0.420779 -22.09731,3.215417 -30.48574,8.682149 -9.08794,5.922683 -14.83028,14.004194 -17.13247,24.28485 l -16.25067,70.589618 33.16233,0 4.4091,-19.7484 23.77792,0 14.73897,0 c 11.79135,0 37.92947,-0.75681 42.83116,-25.675579 l 4.15709,-25.039817 c 2.75812,-21.444382 -9.4215,-31.984295 -31.74544,-33.218652 l -10.58178,0 -13.85718,0 -3.02329,0.125831 z m -6.48706,23.412706 18.37129,0 22.45376,0 -6.75186,30.426529 c -0.69215,2.785209 -4.41522,4.090205 -6.28078,4.077788 l -17.27219,0 -24.65207,0 6.75186,-28.85814 c 0.45305,-2.507059 1.13502,-3.991064 2.04124,-4.548301 0.93114,-0.613308 2.77448,-1.023101 5.33875,-1.097876 z"
           id="path2565"
           sodipodi:nodetypes="cscccccccccccccccccccccc"
           inkscape:connector-curvature="0" />
        <path
           transform="matrix(0.71325,0,0,0.71325,964.53825,168.44127)"
           sodipodi:nodetypes="cscccccccccccccccccccccc"
           id="path2567"
           d="m -802.94733,20.284783 c -11.89878,0.420779 -22.09731,3.215417 -30.48574,8.682149 -9.08794,5.922683 -14.83028,14.004194 -17.13247,24.28485 l -16.25067,70.589618 33.16233,0 4.4091,-19.7484 23.77792,0 14.73897,0 c 11.79135,0 37.92947,-0.75681 42.83116,-25.675579 l 4.15709,-25.039817 c 2.75812,-21.444382 -9.4215,-31.984295 -31.74544,-33.218652 l -10.58178,0 -13.85718,0 -3.02329,0.125831 z m -6.48706,23.412706 18.37129,0 22.45376,0 -6.75186,30.426529 c -0.69215,2.785209 -4.41522,4.090205 -6.28078,4.077788 l -17.27219,0 -24.65207,0 6.75186,-28.85814 c 0.45305,-2.507059 1.13502,-3.991064 2.04124,-4.548301 0.93114,-0.613308 2.77448,-1.023101 5.33875,-1.097876 z"
           style="font-style:normal;font-variant:normal;font-weight:normal;font-stretch:normal;font-size:39.99996948px;line-height:125%;font-family:'Frozen Dog Treats';text-align:start;writing-mode:lr-tb;text-anchor:start;opacity:0.24468085;fill:#ffffff;fill-opacity:1;stroke:none;stroke-width:4.53122997;stroke-linecap:butt;stroke-linejoin:miter;stroke-miterlimit:4;stroke-opacity:1;filter:url(#filter5563)"
           inkscape:connector-curvature="0" />
        <path
           style="font-style:normal;font-variant:normal;font-weight:normal;font-stretch:normal;font-size:39.99996948px;line-height:125%;font-family:'Frozen Dog Treats';text-align:start;writing-mode:lr-tb;text-anchor:start;opacity:0.49468085;fill:#d2eff7;fill-opacity:1;stroke:none;stroke-width:4.53122997;stroke-linecap:butt;stroke-linejoin:miter;stroke-miterlimit:4;stroke-opacity:1;filter:url(#filter6603)"
           d="m -802.94733,20.284783 c -11.89878,0.420779 -22.09731,3.215417 -30.48574,8.682149 -9.08794,5.922683 -14.83028,14.004194 -17.13247,24.28485 l -16.25067,70.589618 26.20424,0 4.4091,-19.7484 30.73601,0 14.73897,0 c 11.79135,0 37.92947,-0.75681 42.83116,-25.675579 l 4.15709,-25.039817 c 2.75812,-21.444382 -9.4215,-31.984295 -31.74544,-33.218652 l -10.58178,0 -13.85718,0 -3.02329,0.125831 z m -9.86668,19.044119 23.02326,0 28.1395,0 -8.46157,38.131126 c -0.86741,3.490479 -5.53324,5.125926 -7.8712,5.110365 l -21.64585,0 -30.89446,0 8.46157,-36.16559 c 0.56777,-3.141896 1.42243,-5.00168 2.55812,-5.700021 1.16692,-0.768609 3.47703,-1.28217 6.69063,-1.37588 z"
           id="path2569"
           sodipodi:nodetypes="cscccccccccccccccccccccc"
           transform="matrix(0.6198357,0,0,0.628685,889.03579,174.27779)"
           inkscape:connector-curvature="0" />
      </g>
      <g
         id="g2617"
         transform="matrix(1.2022767,0,0,1.2022767,-96.016197,-29.975211)">
        <g
           style="display:inline;opacity:1"
           id="g2597"
           transform="translate(591.0645,-137.64166)">
          <text
             xml:space="preserve"
             style="font-style:normal;font-variant:normal;font-weight:normal;font-stretch:normal;font-size:20px;line-height:125%;font-family:BlendfontsWuestling;-inkscape-font-specification:BlendfontsWuestling;text-align:start;writing-mode:lr-tb;text-anchor:start;fill:#94a4ab;fill-opacity:1;stroke:none;stroke-width:1px;stroke-linecap:butt;stroke-linejoin:miter;stroke-opacity:1"
             x="-499"
             y="393"
             id="text2599"
             transform="matrix(1.6495501,0,0,1.6495501,283.52995,-245.90538)"
             sodipodi:linespacing="125%"><tspan
               sodipodi:role="line"
               id="tspan2601"
               x="-499"
               y="393">Bring out your fonts!</tspan></text>
          <text
             xml:space="preserve"
             style="font-style:normal;font-variant:normal;font-weight:normal;font-stretch:normal;font-size:20px;line-height:125%;font-family:'Rough Draft';-inkscape-font-specification:'Rough Draft';text-align:start;writing-mode:lr-tb;text-anchor:start;fill:#c1cace;fill-opacity:1;stroke:none;stroke-width:1px;stroke-linecap:butt;stroke-linejoin:miter;stroke-opacity:1"
             x="-499"
             y="393"
             id="text2603"
             transform="matrix(1.045403,0,0,1.045403,-21.361831,-10.357622)"
             sodipodi:linespacing="125%"><tspan
               sodipodi:role="line"
               id="tspan2605"
               x="-499"
               y="393">Bring out your fonts!</tspan></text>
          <text
             sodipodi:linespacing="125%"
             transform="matrix(1.4972432,0,0,1.4972432,208.20529,-187.27928)"
             id="text2607"
             y="393"
             x="-499"
             style="font-style:normal;font-variant:normal;font-weight:normal;font-stretch:normal;font-size:20px;line-height:125%;font-family:'IM FELL English PRO';-inkscape-font-specification:'IM FELL English PRO';text-align:start;writing-mode:lr-tb;text-anchor:start;fill:#b2bdc2;fill-opacity:1;stroke:none;stroke-width:1px;stroke-linecap:butt;stroke-linejoin:miter;stroke-opacity:1"
             xml:space="preserve"><tspan
               y="393"
               x="-499"
               id="tspan2609"
               sodipodi:role="line">Bring out your fonts!</tspan></text>
        </g>
        <text
           sodipodi:linespacing="125%"
           transform="matrix(1.2290398,0,0,1.2290398,667.21644,-220.30291)"
           id="text2611"
           y="393"
           x="-499"
           style="font-style:normal;font-variant:normal;font-weight:800;font-stretch:normal;font-size:20px;line-height:125%;font-family:BlendfontsMonokultur;-inkscape-font-specification:'BlendfontsMonokultur Ultra-Bold';text-align:start;writing-mode:lr-tb;text-anchor:start;display:inline;fill:#ffffff;fill-opacity:1;stroke:none;stroke-width:1px;stroke-linecap:butt;stroke-linejoin:miter;stroke-opacity:1"
           xml:space="preserve"><tspan
             y="393"
             x="-499"
             id="tspan2613"
             sodipodi:role="line">Bring out your fonts!</tspan></text>
      </g>
    </g>
    <g
       transform="matrix(0.6078307,0,0,0.6078307,-246.2925,137.86847)"
       id="g2547">
      <text
         inkscape:transform-center-y="19.716947"
         inkscape:transform-center-x="-25.708071"
         transform="matrix(0.9513057,0.7296082,-0.7296082,0.9513057,497.43808,179.62445)"
         sodipodi:linespacing="100%"
         id="text4380"
         y="398.66666"
         x="-30.833334"
         style="font-size:32px;font-style:normal;font-variant:normal;font-weight:400;font-stretch:normal;text-indent:0;text-align:center;text-decoration:none;line-height:100%;letter-spacing:normal;word-spacing:normal;text-transform:none;direction:ltr;block-progression:tb;writing-mode:lr-tb;text-anchor:start;fill:#91a2a9;fill-opacity:1;fill-rule:nonzero;stroke:none;stroke-width:0;stroke-linecap:butt;stroke-linejoin:miter;marker:none;marker-start:none;marker-mid:none;marker-end:none;stroke-miterlimit:0;stroke-dasharray:none;stroke-dashoffset:0;stroke-opacity:1;visibility:visible;display:inline;overflow:visible;enable-background:accumulate;font-family:IM FELL FLOWERS 2;-inkscape-font-specification:Bitstream Vera Sans"
         xml:space="preserve"><tspan
           y="398.66666"
           x="-30.833334"
           id="tspan4382"
           sodipodi:role="line">a</tspan></text>
      <text
         xml:space="preserve"
         style="font-size:32px;font-style:normal;font-variant:normal;font-weight:400;font-stretch:normal;text-indent:0;text-align:center;text-decoration:none;line-height:100%;letter-spacing:normal;word-spacing:normal;text-transform:none;direction:ltr;block-progression:tb;writing-mode:lr-tb;text-anchor:start;fill:#91a2a9;fill-opacity:1;fill-rule:nonzero;stroke:none;stroke-width:0;stroke-linecap:butt;stroke-linejoin:miter;marker:none;marker-start:none;marker-mid:none;marker-end:none;stroke-miterlimit:0;stroke-dasharray:none;stroke-dashoffset:0;stroke-opacity:1;visibility:visible;display:inline;overflow:visible;enable-background:accumulate;font-family:IM FELL FLOWERS 2;-inkscape-font-specification:Bitstream Vera Sans"
         x="-30.833334"
         y="398.66666"
         id="text2543"
         sodipodi:linespacing="100%"
         transform="matrix(-0.9513057,0.7296082,0.7296082,0.9513057,-127.25982,179.62445)"
         inkscape:transform-center-x="25.708071"
         inkscape:transform-center-y="19.716947"><tspan
           sodipodi:role="line"
           id="tspan2545"
           x="-30.833334"
           y="398.66666">a</tspan></text>
    </g>
    <rect
       y="155.17436"
       x="356.94244"
       height="125"
       width="459.05359"
       id="rect4273"
       style="color:#000000;display:inline;overflow:visible;visibility:visible;opacity:1;fill:#90a1a8;fill-opacity:1;fill-rule:nonzero;stroke:none;stroke-width:2;stroke-linecap:butt;stroke-linejoin:miter;stroke-miterlimit:4;stroke-dasharray:none;stroke-dashoffset:0;stroke-opacity:1;marker:none;marker-start:none;marker-mid:none;marker-end:none;enable-background:accumulate" />
    <text
       xml:space="preserve"
       style="font-style:normal;font-variant:normal;font-weight:400;font-stretch:normal;font-size:129.04579163px;line-height:100%;font-family:'IM FELL FLOWERS 2';-inkscape-font-specification:'Bitstream Vera Sans';text-indent:0;text-align:center;text-decoration:none;text-decoration-line:none;letter-spacing:normal;word-spacing:normal;text-transform:none;direction:ltr;block-progression:tb;writing-mode:lr-tb;text-anchor:start;display:inline;overflow:visible;visibility:visible;fill:#ffffff;fill-opacity:1;fill-rule:nonzero;stroke:none;stroke-width:0;stroke-linecap:butt;stroke-linejoin:miter;stroke-miterlimit:0;stroke-dasharray:none;stroke-dashoffset:0;stroke-opacity:1;marker:none;marker-start:none;marker-mid:none;marker-end:none;enable-background:accumulate"
       x="303.54541"
       y="-275.93259"
       id="text4501"
       sodipodi:linespacing="100%"
       transform="matrix(0.8027917,0.60152861,-0.61570472,0.78430806,0,0)"
       inkscape:transform-center-x="-87.487548"
       inkscape:transform-center-y="65.554105"><tspan
         sodipodi:role="line"
         id="tspan4503"
         x="303.54541"
         y="-275.93259">a</tspan></text>
    <g
       id="g4279"
       transform="matrix(1.3375458,0,0.00699228,1.31652,-2106.6862,-820.58355)"
       style="fill:#000000;fill-opacity:0.53617021;filter:url(#filter3294)" />
    <text
       transform="matrix(1.0079537,0,-0.18430133,0.99210906,0,0)"
       xml:space="preserve"
       style="font-style:normal;font-variant:normal;font-weight:bold;font-stretch:normal;font-size:53.65874863px;line-height:110.00000238%;font-family:Montserrat;-inkscape-font-specification:'Montserrat, Bold';text-align:start;writing-mode:lr-tb;text-anchor:start;fill-opacity:1;stroke:none;stroke-width:1.5;stroke-linecap:butt;stroke-linejoin:miter;stroke-miterlimit:4;stroke-dasharray:none;stroke-opacity:1;"
       x="486.26288"
       y="134.60242"
       id="text4291"
       sodipodi:linespacing="110%"><tspan
         dx="0 -4.7942166 -4.0477638 -2.8993413 -0.35687146"
         sodipodi:role="line"
         id="tspan4293"
         x="486.26288"
         y="134.60242"
         dy="0 0 0 0 -0.24510401">fonty</tspan></text>
    <text
       transform="matrix(1.0079537,0,-0.18430133,0.99210906,0,0)"
       sodipodi:linespacing="110%"
       id="text4295"
       y="134.92427"
       x="619.69495"
       style="font-style:normal;font-variant:normal;font-weight:bold;font-stretch:normal;font-size:53.65874863px;line-height:110.00000238%;font-family:Montserrat;-inkscape-font-specification:'Montserrat, Bold';text-align:start;writing-mode:lr-tb;text-anchor:start;fill-opacity:1;stroke:none;stroke-width:1.5;stroke-linecap:butt;stroke-linejoin:miter;stroke-miterlimit:4;stroke-dasharray:none;stroke-opacity:1;"
       xml:space="preserve"><tspan
         dx="0 -1.9818803 7.6010586e-08 -1.0051775 -4.0829549 -4.5768766"
         y="134.92427"
         x="619.69495"
         id="tspan4297"
         sodipodi:role="line">python</tspan></text>
    <g
       id="g4299"
       transform="matrix(0.68011486,0,0,0.66429612,151.42699,60.24147)">
      <use
         x="0"
         y="0"
         xlink:href="#path1917"
         id="use4301"
         transform="matrix(0.71325,0,0,0.71325,465.97126,196.58107)"
         width="744.09448"
         height="1052.3622"
         style="filter:url(#filter6587)" />
      <use
         style="filter:url(#filter6587)"
         height="1052.3622"
         width="744.09448"
         transform="matrix(0.71325,0,0,0.71325,465.97126,196.58107)"
         id="use4303"
         xlink:href="#path1917"
         y="0"
         x="0" />
      <path
         transform="matrix(0.53865,0,0,0.53865,207.79141,6.462195)"
         style="font-style:normal;font-variant:normal;font-weight:normal;font-stretch:normal;font-size:39.99996948px;line-height:125%;font-family:'Frozen Dog Treats';text-align:start;writing-mode:lr-tb;text-anchor:start;fill:#999999;fill-opacity:1;stroke:#ffffff;stroke-width:8.92646027;stroke-linecap:butt;stroke-linejoin:miter;stroke-miterlimit:4;stroke-dasharray:none;stroke-opacity:1"
         d="m 340.91504,322.40236 c -16.7798,0.59339 -31.16187,4.53442 -42.99135,12.24368 -12.81594,8.35225 -20.91386,19.74891 -24.16043,34.24682 l -22.91692,99.54644 52.40681,0 6.21777,-26.43925 27.8911,0 20.78503,0 c 16.62838,0 53.48872,-2.47747 60.40108,-37.61827 l 5.86244,-35.31148 c 3.88956,-30.24115 -13.28628,-45.10468 -44.76785,-46.84539 l -14.92258,0 -19.5415,0 -4.2636,0.17745 z m -6.21778,40.10248 20.78509,0 25.40395,0 -7.63895,34.42427 c -0.78301,3.15115 -4.99529,4.62761 -7.10603,4.61356 l -19.5415,0 -27.89111,0 7.63901,-32.64981 c 0.51249,-2.83646 1.28406,-4.51545 2.30944,-5.1459 1.05341,-0.69389 3.1389,-1.15753 6.0401,-1.24212 z"
         id="path4305"
         sodipodi:nodetypes="csccccccccccccccccccccsc"
         inkscape:export-filename="/home/donn/Projects/pythoning/fontyPython/designfiles/biglogo.png"
         inkscape:export-xdpi="89.985931"
         inkscape:export-ydpi="89.985931"
         inkscape:connector-curvature="0" />
      <path
         transform="matrix(3.6169615,0,0,3.6122709,334.68954,163.33399)"
         sodipodi:nodetypes="ccccccccccc"
         id="path4307"
         d="m 8.3440419,22.435837 9.8970071,0 c 2.476349,0 7.968655,-0.374557 8.998064,-5.614634 l 0.891891,-5.262158 C 28.710243,7.0495857 26.135075,4.8283208 21.446736,4.5687527 l -5.759445,0.013441 -0.924303,6.0128143 6.88638,0 -1.139939,5.134561 c -0.116604,0.469889 -0.746073,0.682109 -1.06041,0.680013 l -12.012801,0.0138"
         style="font-style:normal;font-variant:normal;font-weight:normal;font-stretch:normal;font-size:39.99996948px;line-height:125%;font-family:'Frozen Dog Treats';text-align:start;writing-mode:lr-tb;text-anchor:start;fill:#768b94;fill-opacity:1;stroke:none;stroke-width:1px;stroke-linecap:butt;stroke-linejoin:miter;stroke-opacity:1"
         inkscape:connector-curvature="0" />
      <path
         transform="matrix(3.6169615,0,0,3.6122709,334.68954,163.33399)"
         style="font-style:normal;font-variant:normal;font-weight:normal;font-stretch:normal;font-size:36.68085098px;line-height:125%;font-family:'Frozen Dog Treats';text-align:start;writing-mode:lr-tb;text-anchor:start;fill:#090a0a;fill-opacity:1;stroke:none;stroke-width:1px;stroke-linecap:butt;stroke-linejoin:miter;stroke-opacity:1"
         d="m 15.160497,22.43986 -4.156469,0 -0.916118,3.947813 -7.8251777,0 L 5.6981761,11.54813 C 6.1816747,9.3862509 7.3777168,7.682584 9.2863062,6.4371248 11.194873,5.1917055 13.536061,4.5689858 16.309881,4.568964 l 2.928363,-2.113e-4 -1.374178,6.0262553 -2.934977,0 c -0.534419,1.6e-5 -0.884073,0.06018 -1.062191,0.17766 -0.152702,0.09401 -0.267217,0.352498 -0.343545,0.775462 l -1.145147,4.864269 4.156468,0 -1.374177,6.027461"
         id="path4309"
         sodipodi:nodetypes="cccccsccccscccc"
         inkscape:connector-curvature="0" />
      <path
         transform="matrix(0.71325,0,0,0.71325,964.53825,168.44127)"
         style="font-style:normal;font-variant:normal;font-weight:normal;font-stretch:normal;font-size:39.99996948px;line-height:125%;font-family:'Frozen Dog Treats';text-align:start;writing-mode:lr-tb;text-anchor:start;opacity:0.33699999;fill:#ffffff;fill-opacity:1;stroke:none;stroke-width:4.53122997;stroke-linecap:butt;stroke-linejoin:miter;stroke-miterlimit:4;stroke-opacity:1;filter:url(#filter5563)"
         d="m -802.94733,20.284783 c -11.89878,0.420779 -22.09731,3.215417 -30.48574,8.682149 -9.08794,5.922683 -14.83028,14.004194 -17.13247,24.28485 l -16.25067,70.589618 33.16233,0 4.4091,-19.7484 23.77792,0 14.73897,0 c 11.79135,0 37.92947,-0.75681 42.83116,-25.675579 l 4.15709,-25.039817 c 2.75812,-21.444382 -9.4215,-31.984295 -31.74544,-33.218652 l -10.58178,0 -13.85718,0 -3.02329,0.125831 z m -6.48706,23.412706 18.37129,0 22.45376,0 -6.75186,30.426529 c -0.69215,2.785209 -4.41522,4.090205 -6.28078,4.077788 l -17.27219,0 -24.65207,0 6.75186,-28.85814 c 0.45305,-2.507059 1.13502,-3.991064 2.04124,-4.548301 0.93114,-0.613308 2.77448,-1.023101 5.33875,-1.097876 z"
         id="path4311"
         sodipodi:nodetypes="cscccccccccccccccccccccc"
         inkscape:connector-curvature="0" />
      <path
         transform="matrix(0.71325,0,0,0.71325,964.53825,168.44127)"
         sodipodi:nodetypes="cscccccccccccccccccccccc"
         id="path4313"
         d="m -802.94733,20.284783 c -11.89878,0.420779 -22.09731,3.215417 -30.48574,8.682149 -9.08794,5.922683 -14.83028,14.004194 -17.13247,24.28485 l -16.25067,70.589618 33.16233,0 4.4091,-19.7484 23.77792,0 14.73897,0 c 11.79135,0 37.92947,-0.75681 42.83116,-25.675579 l 4.15709,-25.039817 c 2.75812,-21.444382 -9.4215,-31.984295 -31.74544,-33.218652 l -10.58178,0 -13.85718,0 -3.02329,0.125831 z m -6.48706,23.412706 18.37129,0 22.45376,0 -6.75186,30.426529 c -0.69215,2.785209 -4.41522,4.090205 -6.28078,4.077788 l -17.27219,0 -24.65207,0 6.75186,-28.85814 c 0.45305,-2.507059 1.13502,-3.991064 2.04124,-4.548301 0.93114,-0.613308 2.77448,-1.023101 5.33875,-1.097876 z"
         style="font-style:normal;font-variant:normal;font-weight:normal;font-stretch:normal;font-size:39.99996948px;line-height:125%;font-family:'Frozen Dog Treats';text-align:start;writing-mode:lr-tb;text-anchor:start;opacity:0.24468085;fill:#ffffff;fill-opacity:1;stroke:none;stroke-width:4.53122997;stroke-linecap:butt;stroke-linejoin:miter;stroke-miterlimit:4;stroke-opacity:1;filter:url(#filter5563)"
         inkscape:connector-curvature="0" />
      <path
         style="font-style:normal;font-variant:normal;font-weight:normal;font-stretch:normal;font-size:39.99996948px;line-height:125%;font-family:'Frozen Dog Treats';text-align:start;writing-mode:lr-tb;text-anchor:start;opacity:0.49468085;fill:#d2eff7;fill-opacity:1;stroke:none;stroke-width:4.53122997;stroke-linecap:butt;stroke-linejoin:miter;stroke-miterlimit:4;stroke-opacity:1;filter:url(#filter6603)"
         d="m -802.94733,20.284783 c -11.89878,0.420779 -22.09731,3.215417 -30.48574,8.682149 -9.08794,5.922683 -14.83028,14.004194 -17.13247,24.28485 l -16.25067,70.589618 26.20424,0 4.4091,-19.7484 30.73601,0 14.73897,0 c 11.79135,0 37.92947,-0.75681 42.83116,-25.675579 l 4.15709,-25.039817 c 2.75812,-21.444382 -9.4215,-31.984295 -31.74544,-33.218652 l -10.58178,0 -13.85718,0 -3.02329,0.125831 z m -9.86668,19.044119 23.02326,0 28.1395,0 -8.46157,38.131126 c -0.86741,3.490479 -5.53324,5.125926 -7.8712,5.110365 l -21.64585,0 -30.89446,0 8.46157,-36.16559 c 0.56777,-3.141896 1.42243,-5.00168 2.55812,-5.700021 1.16692,-0.768609 3.47703,-1.28217 6.69063,-1.37588 z"
         id="path4315"
         sodipodi:nodetypes="cscccccccccccccccccccccc"
         transform="matrix(0.6198357,0,0,0.628685,889.03579,174.27779)"
         inkscape:connector-curvature="0" />
    </g>
    <text
       xml:space="preserve"
       style="font-style:normal;font-variant:normal;font-weight:normal;font-stretch:normal;font-size:20.80355072px;line-height:125%;font-family:Montserrat;-inkscape-font-specification:'Montserrat, Normal';text-align:start;writing-mode:lr-tb;text-anchor:start;display:inline;fill:#ffffff;fill-opacity:1;stroke:none;stroke-width:1px;stroke-linecap:butt;stroke-linejoin:miter;stroke-opacity:1"
       x="553.89142"
       y="258.99753"
       id="text4333"
       transform="scale(1.0079537,0.99210906)"
       sodipodi:linespacing="125%"><tspan
         sodipodi:role="line"
         id="tspan4335"
         x="553.89142"
         y="258.99753">Bring out your fonts!</tspan></text>
    <g
       id="g4713"
       transform="translate(-13.310185,1.1574074)">
      <g
         id="g4497">
        <use
           x="0"
           y="0"
           xlink:href="#text4291"
           id="use4229"
           transform="translate(2.3148148,88.541667)"
           width="100%"
           height="100%"
           style="fill:#000000;fill-opacity:1;filter:url(#filter4705)" />
        <use
           x="0"
           y="0"
           xlink:href="#text4295"
           id="use4231"
           transform="translate(2.3148148,88.541667)"
           width="100%"
           height="100%"
           style="fill:#000000;fill-opacity:1;filter:url(#filter4709)" />
      </g>
      <g
         transform="translate(-3.2736425,0.81841026)"
         id="g4493">
        <use
           x="0"
           y="0"
           xlink:href="#text4291"
           id="use4489"
           transform="translate(4.6296296,85.358796)"
           width="100%"
           height="100%"
           style="fill:#dbdee3;fill-opacity:1" />
        <use
           x="0"
           y="0"
           xlink:href="#text4295"
           id="use4491"
           transform="translate(4.6296296,85.358796)"
           width="100%"
           height="100%"
           style="fill:#ffffff;fill-opacity:1" />
      </g>
    </g>
  </g>
  <g
     inkscape:groupmode="layer"
     id="layer2"
     inkscape:label="slices"
     style="display:none">
    <rect
       inkscape:export-ydpi="89.985931"
       inkscape:export-xdpi="89.985931"
       y="155.17436"
       x="-188.11903"
       height="125"
       width="430"
       id="fphelplogo"
       style="opacity:0.2;fill:#ff0000;fill-opacity:1;stroke:none;stroke-width:1.97348583;stroke-linejoin:round;stroke-miterlimit:4;stroke-dasharray:none;stroke-opacity:1"
       inkscape:label="#rect2289" />
    <rect
       inkscape:label="#rect2289"
       style="opacity:0.2;fill:#ff0000;fill-opacity:1;stroke:none;stroke-width:1.97348583;stroke-linejoin:round;stroke-miterlimit:4;stroke-dasharray:none;stroke-opacity:1"
       id="break"
       width="216.70116"
       height="225.37424"
       x="-497.9292"
       y="-180.80663"
       inkscape:export-xdpi="89.985931"
       inkscape:export-ydpi="89.985931"
       transform="matrix(0.3922453,0,0,0.2662239,19.020718,477.13504)" />
  </g>
</svg>
