<?xml version="1.0" encoding="UTF-8" standalone="no"?>
<!-- Created with Inkscape (http://www.inkscape.org/) -->

<svg
   xmlns:dc="http://purl.org/dc/elements/1.1/"
   xmlns:cc="http://creativecommons.org/ns#"
   xmlns:rdf="http://www.w3.org/1999/02/22-rdf-syntax-ns#"
   xmlns:svg="http://www.w3.org/2000/svg"
   xmlns="http://www.w3.org/2000/svg"
   xmlns:xlink="http://www.w3.org/1999/xlink"
   xmlns:sodipodi="http://sodipodi.sourceforge.net/DTD/sodipodi-0.dtd"
   xmlns:inkscape="http://www.inkscape.org/namespaces/inkscape"
   width="32"
   height="32"
   id="svg2"
   sodipodi:version="0.32"
   inkscape:version="0.92.2 (unknown)"
   version="1.0"
   sodipodi:docname="help_header_logo.svg"
   inkscape:export-filename="/home/donn/Projects/pythoning/fontyPython/fp/fplogo.png"
   inkscape:export-xdpi="96"
   inkscape:export-ydpi="96"
   inkscape:output_extension="org.inkscape.output.svg.inkscape">
  <sodipodi:namedview
     id="base"
     pagecolor="#ffffff"
     bordercolor="#666666"
     borderopacity="1.0"
     gridtolerance="10000"
     guidetolerance="6.1"
     objecttolerance="10"
     inkscape:pageopacity="0"
     inkscape:pageshadow="2"
     inkscape:zoom="2.8284272"
     inkscape:cx="673.49493"
     inkscape:cy="-145.49861"
     inkscape:document-units="px"
     inkscape:current-layer="layer1"
     width="32px"
     height="32px"
     inkscape:window-width="1920"
     inkscape:window-height="1056"
     inkscape:window-x="0"
     inkscape:window-y="24"
     showguides="false"
     inkscape:guide-bbox="true"
     inkscape:object-points="false"
     inkscape:grid-points="false"
     inkscape:guide-points="false"
     showgrid="false"
     inkscape:window-maximized="1">
    <sodipodi:guide
       orientation="horizontal"
       position="28.9375"
       id="guide1946"
       inkscape:locked="false" />
    <sodipodi:guide
       orientation="horizontal"
       position="26.666667"
       id="guide1948"
       inkscape:locked="false" />
    <sodipodi:guide
       orientation="horizontal"
       position="20.716253"
       id="guide1950"
       inkscape:locked="false" />
    <sodipodi:guide
       orientation="horizontal"
       position="7.8359375"
       id="guide1956"
       inkscape:locked="false" />
    <sodipodi:guide
       orientation="horizontal"
       position="14.953125"
       id="guide1958"
       inkscape:locked="false" />
    <sodipodi:guide
       orientation="horizontal"
       position="21.820312"
       id="guide1960"
       inkscape:locked="false" />
  </sodipodi:namedview>
  <defs
     id="defs4">
    <linearGradient
       inkscape:collect="always"
       id="linearGradient4548">
      <stop
         style="stop-color:#494949;stop-opacity:1"
         offset="0"
         id="stop4550" />
      <stop
         style="stop-color:#91a2a9;stop-opacity:1"
         offset="1"
         id="stop4552" />
    </linearGradient>
    <filter
       inkscape:collect="always"
       id="filter6603">
      <feGaussianBlur
         inkscape:collect="always"
         stdDeviation="3.6225052"
         id="feGaussianBlur6605" />
    </filter>
    <filter
       inkscape:collect="always"
       id="filter5563">
      <feGaussianBlur
         inkscape:collect="always"
         stdDeviation="1.8143196"
         id="feGaussianBlur5565" />
    </filter>
    <filter
       inkscape:collect="always"
       id="filter6587">
      <feGaussianBlur
         inkscape:collect="always"
         stdDeviation="4.3543671"
         id="feGaussianBlur6589" />
    </filter>
    <filter
       inkscape:collect="always"
       id="filter3294">
      <feGaussianBlur
         inkscape:collect="always"
         stdDeviation="1.3272304"
         id="feGaussianBlur3296" />
    </filter>
    <linearGradient
       inkscape:collect="always"
       xlink:href="#linearGradient4548"
       id="linearGradient102"
       gradientUnits="userSpaceOnUse"
       x1="506.58484"
       y1="121.28524"
       x2="673.37561"
       y2="121.28524" />
  </defs>
  <metadata
     id="metadata7">
    <rdf:RDF>
      <cc:Work
         rdf:about="">
        <dc:format>image/svg+xml</dc:format>
        <dc:type
           rdf:resource="http://purl.org/dc/dcmitype/StillImage" />
        <dc:title />
      </cc:Work>
    </rdf:RDF>
  </metadata>
  <g
     inkscape:label="Layer 1"
     inkscape:groupmode="layer"
     id="layer1"
     style="display:inline">
    <rect
       style="color:#000000;display:inline;overflow:visible;visibility:visible;opacity:1;fill:#90a1a8;fill-opacity:1;fill-rule:nonzero;stroke:none;stroke-width:2;stroke-linecap:butt;stroke-linejoin:miter;stroke-miterlimit:4;stroke-dasharray:none;stroke-dashoffset:0;stroke-opacity:1;marker:none;marker-start:none;marker-mid:none;marker-end:none;enable-background:accumulate"
       id="rect3443"
       width="430"
       height="125"
       x="-188.11903"
       y="155.17436" />
    <g
       transform="matrix(0.8027917,0.60152861,-0.61570472,0.78430806,0,0)"
       inkscape:transform-center-x="-71.502663"
       inkscape:transform-center-y="53.576692"
       style="font-style:normal;font-variant:normal;font-weight:400;font-stretch:normal;font-size:105.46778107px;line-height:100%;font-family:'IM FELL FLOWERS 2';-inkscape-font-specification:'Bitstream Vera Sans';text-indent:0;text-align:center;text-decoration:none;text-decoration-line:none;letter-spacing:normal;word-spacing:normal;text-transform:none;direction:ltr;block-progression:tb;writing-mode:lr-tb;text-anchor:start;display:inline;overflow:visible;visibility:visible;fill:#ffffff;fill-opacity:1;fill-rule:nonzero;stroke:none;stroke-width:0;stroke-linecap:butt;stroke-linejoin:miter;stroke-miterlimit:0;stroke-dasharray:none;stroke-dashoffset:0;stroke-opacity:1;marker:none;marker-start:none;marker-mid:none;marker-end:none;enable-background:accumulate"
       id="text2539">
      <path
         d="m -40.941538,190.48824 c 0,-3.16403 -1.265614,-3.69137 -3.585905,-5.69526 -0.105468,-0.10547 -0.94921,-0.94921 -1.160145,-1.05468 -2.531227,-2.10935 -6.644471,-2.84763 -9.913972,-2.84763 -1.792952,0 -3.585904,0.52734 -5.378857,0.73828 -0.105467,0 -0.527339,0 -0.94921,0 -0.210935,0 -0.421871,0 -0.421871,0 -0.94921,0.3164 -2.531227,1.37108 -2.84763,2.42576 -1.89842,0.84374 -4.007776,1.68748 -5.378857,3.2695 -1.054678,1.05468 -5.69526,6.32807 -6.749938,7.48821 -2.531227,1.47655 -2.953098,3.90231 -6.222599,3.90231 -1.792952,0 -3.164033,-1.05468 -4.851518,-1.05468 -0.738274,0 -1.792952,1.47655 -1.792952,2.10936 0,2.84763 4.74605,4.32418 5.69526,6.74994 0.421871,0.94921 1.687485,4.21871 1.792952,4.64058 0.632807,1.68748 0.738275,3.2695 1.054678,4.95698 0.316404,1.26562 1.054678,2.32029 1.476549,3.58591 0.843742,2.74216 1.265614,4.42964 2.84763,6.74994 0.527339,0.73827 2.003888,2.95309 2.109356,3.2695 0.105468,0.10546 0.316403,0.94921 0.421871,1.05467 0.105468,0.21094 1.054678,1.68749 1.371081,2.10936 1.89842,2.6367 4.324179,4.95699 6.433535,7.48821 0,0.10547 0.632806,0.63281 0.738274,0.73828 1.89842,3.48043 2.425759,6.64447 2.425759,10.65224 0,4.42965 -0.632806,8.96476 -2.84763,12.86707 0,0.10547 -0.632807,0.94921 -0.738274,1.05468 0,0.10547 -0.210936,1.26561 -0.316404,1.37108 -1.792952,3.16404 -11.495988,8.01555 -11.495988,9.80851 0,1.16014 1.371081,1.26561 2.320291,1.26561 0.316404,0 0.527339,0 0.738275,0 5.906196,0 8.54289,-2.53123 12.761601,-6.11713 0,0 0.316404,-0.31641 0.316404,-0.31641 0,-0.10546 0.316403,-0.6328 0.316403,-0.73827 0.210936,-0.10547 1.687485,-1.58202 1.792952,-1.79295 0.105468,-0.10547 0.632807,-1.26562 0.738275,-1.37108 0.105468,-0.21094 1.371081,-1.58202 1.476549,-1.79296 0.105467,-0.3164 0.527339,-2.21482 0.632806,-2.84763 0.210936,-1.16014 0.738275,-5.90619 0.738275,-6.74993 0,-0.21094 0,-2.6367 0,-3.58591 0,-0.52734 0,-3.05856 0,-3.5859 -0.316403,-0.73828 -1.89842,-4.21871 -2.109356,-4.95699 -0.105468,-0.21093 -0.316403,-1.58202 -0.421871,-1.79295 0,-0.10547 -0.316403,-0.63281 -0.316403,-0.73828 -0.105468,-0.3164 -0.632807,-1.58201 -0.738275,-1.68748 0,-0.10547 0,-0.21094 0,-0.21094 0,-0.10546 0,-0.21093 0,-0.21093 0.105468,-0.10547 0.316404,-0.3164 0.421871,-0.3164 0.94921,0 2.847631,2.10935 4.218712,2.42575 2.531226,0.63281 6.433534,-0.10546 8.54289,1.47655 l 10.335842,0 c 0.210936,-0.10546 1.160146,-0.6328 1.476549,-0.73827 0,0 0.210936,0 0.316404,0 1.160145,0 2.320291,0.42187 3.585904,0.42187 1.582017,0 3.058566,-0.42187 4.640583,-0.42187 3.269501,0 6.433534,1.05468 9.597568,1.79295 1.476549,0.3164 2.84763,0.21094 4.218711,0.73828 0.105468,0 0.632807,0.3164 0.738274,0.3164 0.210936,0.10547 1.898421,0.3164 2.109356,0.42187 0.105468,0 0.632807,0.52734 0.738275,0.63281 0,0 0,0.21093 0,0.21093 0,0 0,0.21094 0,0.21094 -0.105468,0.10547 -0.632807,0.6328 -0.738275,0.6328 -0.210935,0.10547 -2.214823,0.31641 -2.425759,0.42188 -0.421871,0.10546 -3.269501,1.58201 -3.585904,1.79295 -0.210936,0 -1.582017,0.3164 -1.792953,0.3164 -1.792952,0.52734 -2.953098,2.00389 -4.218711,3.16403 -1.054678,0.94921 -2.320291,1.58202 -2.84763,2.84763 -0.105468,0.21094 -0.632807,2.00389 -0.738275,2.21483 -0.105467,0.10547 -0.738274,1.26561 -0.738274,1.37108 -0.105468,0.3164 -0.316403,1.79295 -0.316403,2.21482 0,0.10547 -0.105468,2.10936 -0.105468,2.84763 0,0.42187 0.105468,2.32029 0.105468,2.84763 1.582016,3.69138 3.691372,6.2226 6.328067,9.1757 0.105467,0.10547 0.421871,0.3164 0.421871,0.42187 0.316403,0.21094 2.84763,1.89842 3.164033,2.10936 0.210936,0.10546 1.265613,0.94921 1.476549,1.05467 0.105468,0.10547 1.582017,0.31641 1.792952,0.31641 0.105468,0.10547 1.265614,1.05468 1.371081,1.16014 0.210936,0.10547 1.265614,0.63281 1.476549,0.63281 0.105468,0.10547 1.5820171,0.3164 1.7929527,0.42187 0.3164033,0.10547 3.1640334,0.94921 3.4804367,1.05468 1.5820168,0.3164 6.85540581,1.37108 7.4882125,1.37108 0.4218711,0.10547 9.1756971,0.63281 12.4451981,0.73827 0.105468,0 0.632807,0 0.843742,0 0.632807,0 0.94921,0 1.687485,-0.3164 5.589792,-0.42187 11.601456,-0.84374 17.08578,-2.53123 0.632807,-0.21093 5.484325,-2.21482 6.117132,-2.53122 0.105467,0 1.582016,-0.21094 1.687484,-0.31641 4.218711,-1.37108 8.859294,-3.5859 12.550666,-5.69526 0.210936,-0.10546 1.89842,-1.58201 2.109356,-1.79295 0.210935,-0.10547 1.89842,-0.94921 2.109355,-1.05468 0.316404,-0.10546 1.792953,-1.16014 2.109356,-1.37108 1.687484,-1.26561 3.058566,-2.63669 4.640582,-4.00777 2.320292,-1.89842 4.851518,-3.37497 6.749938,-5.69526 1.476549,-1.68749 2.531227,-3.58591 4.007776,-5.27339 0.210936,-0.42187 1.265613,-1.58202 1.371081,-1.79295 1.582017,-2.3203 2.742162,-4.85152 4.324179,-7.17181 0.105468,-0.21094 1.582017,-2.21483 1.687485,-2.42576 0.105467,-0.10547 0.316403,-0.94921 0.421871,-1.05468 0,-0.10547 0.316403,-0.63281 0.316403,-0.73827 1.160146,-2.00389 2.84763,-5.16793 2.84763,-7.48822 0,-0.6328 -0.316403,-1.16014 -0.316403,-1.79295 0,-0.73827 0.632807,-1.37108 0.738274,-2.10936 0,-0.3164 0.210936,-3.05856 0.316404,-3.9023 0,-0.10547 0,-0.42187 0,-0.52734 0,-0.10547 0,-0.52734 0,-0.63281 0,-1.68748 -0.316404,-9.91397 -0.316404,-11.70692 -1.054677,-1.68749 -1.476549,-3.58591 -2.531226,-5.37886 -0.421872,-0.63281 -2.636695,-4.11324 -3.164034,-4.95698 -1.160145,-1.58202 -4.851518,-2.10936 -6.433534,-2.10936 -1.160146,0 -3.902308,0.73827 -4.640583,1.37108 -0.210935,0.21094 -1.582017,1.68749 -1.792952,1.79295 -0.738275,0.63281 -2.003888,1.37108 -2.109356,2.53123 0,0.10547 0.210936,1.37108 0.316404,1.79295 0,0 0.316403,0.21094 0.421871,0.31641 1.476549,1.26561 2.636694,1.47654 4.535114,1.47654 1.687485,0 3.374969,-0.73827 4.640583,-0.73827 1.054677,0 2.742162,0.52734 3.585904,1.05468 0.210936,0.42187 0.94921,2.10935 1.054678,2.53122 0.105468,0.10547 0.738275,1.26562 0.738275,1.37109 0.210935,0.52733 1.265613,4.85151 1.371081,5.37885 0.105467,0.10547 0.738274,1.26562 0.738274,1.37108 0,0.21094 -0.316403,1.26562 -0.316403,1.47655 -0.105468,0.42187 -0.632807,4.11325 -0.738275,4.64058 -0.210935,1.05468 -0.527339,2.9531 -1.054677,3.90231 -0.738275,1.26562 -1.687485,1.47655 -1.792953,2.84763 -0.421871,0.52734 -2.636694,2.74217 -3.164033,3.16404 -2.003888,1.68748 -4.74605,1.37108 -7.171809,1.79295 -1.792953,0.3164 -3.269502,1.79295 -5.167922,1.79295 0,0 -0.105467,0 -0.105467,0 -0.316404,-0.10547 -2.320292,-0.63281 -2.531227,-0.73827 -0.210936,0 -1.89842,0 -2.109356,0 -0.316403,0 -1.476549,-0.21094 -1.792952,-0.31641 -0.105468,0 -0.632807,-0.3164 -0.738274,-0.3164 -0.105468,0 -0.316404,0 -0.527339,0 -0.527339,0 -1.160146,0 -1.265614,0 -1.476549,-0.21094 -2.84763,-1.05468 -4.218711,-1.47655 -2.003888,-0.63281 -3.058566,-0.84374 -4.640582,-1.79295 -0.105468,-0.10547 -0.632807,-0.3164 -0.738275,-0.3164 -0.210935,-0.10547 -1.89842,-0.63281 -2.109355,-0.73828 -0.210936,-0.10547 -2.003888,-1.26561 -2.214824,-1.37108 -0.210935,-0.21094 -1.89842,-1.05468 -2.109355,-1.16015 -2.109356,-1.16014 -3.691373,-3.05856 -5.695261,-4.21871 -0.210935,-0.21093 -2.320291,-1.26561 -2.531226,-1.47655 -0.105468,-0.10546 -2.109356,-2.53122 -2.84763,-3.48043 0,-0.10547 -0.527339,-1.05468 -0.632807,-1.16015 -0.105468,0 -1.054678,-0.52734 -1.054678,-0.63281 -0.421871,-0.42187 -3.269501,-3.2695 -3.585905,-3.5859 -0.316403,-0.3164 -2.953097,-2.21482 -3.269501,-2.53123 -0.105468,-0.10546 -1.582016,-1.58201 -1.687484,-1.79295 -2.320291,-2.00389 -5.273389,-3.5859 -7.9100838,-4.95698 -3.0585657,-1.58202 -6.6444702,-1.47655 -9.91397145,-2.10936 0,0 -0.10546778,0 -0.21093557,0 -4.11324348,0 -8.22648688,1.68748 -11.60145618,3.90231 -0.94921,0.6328 -1.160145,2.21482 -2.109355,2.84763 -1.582017,1.05468 -2.84763,1.58201 -3.585905,3.5859 -0.632807,1.89842 -0.738274,4.32418 -0.738274,6.32807 0,0.42187 0,0.73827 0,1.16014 0,1.58202 0.105467,3.16404 0.738274,4.64059 0.632807,1.16014 2.320291,4.64058 2.531227,4.95698 1.160145,1.89842 4.324179,2.42576 4.324179,4.95699 0,0.63281 -0.105468,1.16014 -0.738275,1.16014 -1.054677,0 -1.792952,-1.05467 -2.84763,-1.16014 -0.421871,0 -3.585904,0 -4.007775,0 0,0 -0.738275,-0.21094 -1.054678,-0.3164 0,0 -0.632807,-0.31641 -0.632807,-0.42188 -1.687484,-0.42187 -3.374969,-0.3164 -5.062453,-0.6328 -2.214824,-0.52734 -4.956986,-0.63281 -7.066342,-0.73828 -0.105467,0 -0.316403,0 -0.421871,0 -0.421871,0 -1.054678,0 -1.582017,0 -0.738274,0 -1.371081,0 -1.89842,-0.3164 -0.843742,0 -3.058565,0.10547 -5.378856,0.10547 -2.214824,0 -4.535115,-0.10547 -5.378857,-0.10547 -0.527339,-0.10547 -4.218712,-0.84374 -5.273389,-1.16015 -0.316404,0 -2.320292,-0.94921 -2.531227,-1.05467 -0.105468,0 -1.265613,-0.21094 -1.371081,-0.31641 -0.105468,0 -0.316404,-0.6328 -0.421871,-0.73827 0,0 -0.527339,-0.3164 -0.738275,-0.3164 -1.265613,-0.52734 -3.585904,-0.63281 -4.535114,-1.79296 -0.210936,-0.21093 -1.371082,-1.58201 -1.476549,-1.79295 -1.160146,-1.37108 -2.84763,-3.05857 -3.902308,-4.64058 -0.527339,-0.73828 -0.632807,-1.68749 -1.054678,-2.53123 -1.476549,-2.32029 -2.742162,-4.64058 -3.902308,-7.06634 -0.105468,-0.10547 -0.316403,-0.3164 -0.421871,-0.3164 -0.105468,-0.73828 -0.316403,-4.00778 -0.316403,-4.64059 0,-0.10546 0,-1.47654 0,-2.00388 0,-0.31641 0,-1.68749 0,-1.89842 0.105467,-0.10547 0.316403,-0.63281 0.316403,-0.73828 0.105468,-0.42187 0.316403,-3.5859 0.421871,-3.90231 0.105468,-0.84374 0.843742,-3.79684 1.054678,-4.32417 1.371081,-3.90231 4.429647,-7.17181 7.488212,-9.91398 0.105468,-0.21093 0.843743,-0.6328 1.054678,-0.73827 0.105468,-0.10547 0.94921,-0.3164 1.054678,-0.42187 1.160146,-0.63281 1.160146,-1.26562 2.531227,-1.37108 0.316403,0 2.214823,-0.10547 2.636694,-0.10547 4.535115,0 7.59368,1.47655 10.863182,4.32418 1.371081,1.26561 2.214823,2.53122 3.902308,3.2695 0.421871,-0.63281 0.421871,-1.16015 0.421871,-1.79295 0,-0.21094 0,-0.52734 0,-0.73828 z"
         style=""
         id="path4575" />
    </g>
    <path
       transform="translate(-1008.0347,381.01958)"
       style="font-size:39.99996948px;font-style:normal;font-variant:normal;font-weight:normal;font-stretch:normal;text-align:start;line-height:125%;writing-mode:lr-tb;text-anchor:start;fill-opacity:1;display:inline;font-family:Frozen Dog Treats;"
       d="M 908.79657,-397.37303 C 896.12437,-396.9249 885.26297,-393.94861 876.32927,-388.12654 C 866.65067,-381.81888 860.53507,-373.21207 858.08317,-362.26317 L 840.77627,-287.08521 L 880.35417,-287.08521 L 885.04987,-307.05226 L 906.11327,-307.05226 L 921.81027,-307.05226 C 934.36807,-307.05226 962.20517,-308.92326 967.42547,-335.46176 L 971.85277,-362.12917 C 974.79017,-384.96744 961.81887,-396.19245 938.04387,-397.50704 L 926.77427,-397.50704 L 912.01637,-397.50704 L 908.79657,-397.37303 z M 904.10087,-367.08744 L 919.79787,-367.08744 L 938.98307,-367.08744 L 933.21407,-341.09006 C 932.62267,-338.71029 929.44157,-337.59526 927.84757,-337.60587 L 913.08967,-337.60587 L 892.02617,-337.60587 L 897.79517,-362.26317 C 898.18227,-364.40528 898.76497,-365.67326 899.53927,-366.14938 C 900.33487,-366.67341 901.90987,-367.02355 904.10087,-367.08744 z"
       id="path1917"
       sodipodi:nodetypes="csccccccccccccccccccccsc"
       inkscape:export-filename="/home/donn/Projects/pythoning/fontyPython/designfiles/biglogo.png"
       inkscape:export-xdpi="96"
       inkscape:export-ydpi="96" />
    <g
       id="g3403"
       transform="matrix(0.8524496,0,0,0.83904938,-40.740078,22.098662)">
      <g
         id="g2628"
         transform="translate(0,-3)">
        <g
           style="fill:#000000;fill-opacity:0.53617021;filter:url(#filter3294)"
           transform="matrix(1.5690614,0,0.00820257,1.5690614,-3062.9466,-1001.3297)"
           id="g2514">
          <text
             id="text2516"
             y="796.29364"
             x="2069.134"
             style="font-style:normal;font-variant:normal;font-weight:800;font-stretch:normal;line-height:0%;font-family:BlendfontsMonokultur;-inkscape-font-specification:'BlendfontsMonokultur Ultra-Bold';text-align:start;writing-mode:lr-tb;text-anchor:start;fill:#000000;fill-opacity:0.53617021;stroke:none;stroke-width:1.5;stroke-linecap:butt;stroke-linejoin:miter;stroke-miterlimit:4;stroke-dasharray:none;stroke-opacity:1"
             xml:space="preserve"
             transform="skewX(-10.651462)"><tspan
               dy="0 0 0 0 -0.18470658"
               y="796.29364"
               x="2069.134"
               id="tspan2518"
               sodipodi:role="line"
               dx="0 -3.6128471 -3.0503321 -2.1848986 -0.26893279"
               style="font-size:40.43667984px;line-height:1.10000002">Fonty</tspan></text>
          <text
             xml:space="preserve"
             style="font-style:normal;font-variant:normal;font-weight:800;font-stretch:normal;line-height:0%;font-family:BlendfontsMonokultur;-inkscape-font-specification:'BlendfontsMonokultur Ultra-Bold';text-align:start;writing-mode:lr-tb;text-anchor:start;fill:#000000;fill-opacity:0.53617021;stroke:none;stroke-width:1.5;stroke-linecap:butt;stroke-linejoin:miter;stroke-miterlimit:4;stroke-dasharray:none;stroke-opacity:1"
             x="2069.0386"
             y="828.6283"
             id="text2520"
             transform="matrix(1,0,-0.1880747,1,100.87061,-32.092115)"><tspan
               sodipodi:role="line"
               id="tspan2522"
               x="2069.0386"
               y="828.6283"
               dx="0 -1.4935142 5.7280399e-08 -0.7574861 -3.0768514 -3.4490631"
               style="font-size:40.43667984px;line-height:1.10000002">Python</tspan></text>
        </g>
        <g
           id="g4570"
           transform="matrix(1.5690614,0,0.00820257,1.5690614,-3066.9466,-1005.3297)">
          <text
             transform="skewX(-10.651462)"
             xml:space="preserve"
             style="font-style:normal;font-variant:normal;font-weight:800;font-stretch:normal;line-height:0%;font-family:BlendfontsMonokultur;-inkscape-font-specification:'BlendfontsMonokultur Ultra-Bold';text-align:start;writing-mode:lr-tb;text-anchor:start;fill:#dbdee3;fill-opacity:1;stroke:none;stroke-width:1.5;stroke-linecap:butt;stroke-linejoin:miter;stroke-miterlimit:4;stroke-dasharray:none;stroke-opacity:1"
             x="2069.134"
             y="796.29364"
             id="text4525"><tspan
               dx="0 -3.6128471 -3.0503321 -2.1848986 -0.26893279"
               sodipodi:role="line"
               id="tspan4527"
               x="2069.134"
               y="796.29364"
               dy="0 0 0 0 -0.18470658"
               style="font-size:40.43667984px;line-height:1.10000002">Fonty</tspan></text>
          <text
             transform="matrix(1,0,-0.1880747,1,100.87061,-32.092115)"
             id="text4529"
             y="828.6283"
             x="2069.0386"
             style="font-style:normal;font-variant:normal;font-weight:800;font-stretch:normal;line-height:0%;font-family:BlendfontsMonokultur;-inkscape-font-specification:'BlendfontsMonokultur Ultra-Bold';text-align:start;writing-mode:lr-tb;text-anchor:start;fill:#ffffff;fill-opacity:1;stroke:none;stroke-width:1.5;stroke-linecap:butt;stroke-linejoin:miter;stroke-miterlimit:4;stroke-dasharray:none;stroke-opacity:1"
             xml:space="preserve"><tspan
               dx="0.88517177 -1.4935142 5.7280399e-08 -0.7574861 -3.0768514 -3.4490631"
               y="828.6283"
               x="2069.0386"
               id="tspan4531"
               sodipodi:role="line"
               style="font-size:40.43667984px;line-height:1.10000002">Python</tspan></text>
        </g>
      </g>
      <g
         id="g2587"
         transform="translate(-486.58333,-4.2222222)">
        <use
           x="0"
           y="0"
           xlink:href="#path1917"
           id="use2551"
           transform="matrix(0.71325,0,0,0.71325,465.97126,196.58107)"
           width="744.09448"
           height="1052.3622"
           style="filter:url(#filter6587)" />
        <use
           style="filter:url(#filter6587)"
           height="1052.3622"
           width="744.09448"
           transform="matrix(0.71325,0,0,0.71325,465.97126,196.58107)"
           id="use2553"
           xlink:href="#path1917"
           y="0"
           x="0" />
        <path
           transform="matrix(0.53865,0,0,0.53865,207.79141,6.462195)"
           style="font-style:normal;font-variant:normal;font-weight:normal;font-stretch:normal;font-size:39.99996948px;line-height:125%;font-family:'Frozen Dog Treats';text-align:start;writing-mode:lr-tb;text-anchor:start;fill:#999999;fill-opacity:1;stroke:#ffffff;stroke-width:7.094522;stroke-linecap:butt;stroke-linejoin:miter;stroke-miterlimit:4;stroke-dasharray:none;stroke-opacity:1"
           d="m 340.91504,322.40236 c -16.7798,0.59339 -31.16187,4.53442 -42.99135,12.24368 -12.81594,8.35225 -20.91386,19.74891 -24.16043,34.24682 l -22.91692,99.54644 52.40681,0 6.21777,-26.43925 27.8911,0 20.78503,0 c 16.62838,0 53.48872,-2.47747 60.40108,-37.61827 l 5.86244,-35.31148 c 3.88956,-30.24115 -13.28628,-45.10468 -44.76785,-46.84539 l -14.92258,0 -19.5415,0 -4.2636,0.17745 z m -6.21778,40.10248 20.78509,0 25.40395,0 -7.63895,34.42427 c -0.78301,3.15115 -4.99529,4.62761 -7.10603,4.61356 l -19.5415,0 -27.89111,0 7.63901,-32.64981 c 0.51249,-2.83646 1.28406,-4.51545 2.30944,-5.1459 1.05341,-0.69389 3.1389,-1.15753 6.0401,-1.24212 z"
           id="path2557"
           sodipodi:nodetypes="csccccccccccccccccccccsc"
           inkscape:export-filename="/home/donn/Projects/pythoning/fontyPython/designfiles/biglogo.png"
           inkscape:export-xdpi="96"
           inkscape:export-ydpi="96"
           inkscape:connector-curvature="0" />
        <path
           transform="matrix(3.6169615,0,0,3.6122709,334.68954,163.33399)"
           sodipodi:nodetypes="ccccccccccc"
           id="path2561"
           d="m 8.3440419,22.435837 9.8970071,0 c 2.476349,0 7.968655,-0.374557 8.998064,-5.614634 l 0.891891,-5.262158 C 28.710243,7.0495857 26.135075,4.8283208 21.446736,4.5687527 l -5.759445,0.013441 -0.924303,6.0128143 6.88638,0 -1.139939,5.134561 c -0.116604,0.469889 -0.746073,0.682109 -1.06041,0.680013 l -12.012801,0.0138"
           style="font-style:normal;font-variant:normal;font-weight:normal;font-stretch:normal;font-size:39.99996948px;line-height:125%;font-family:'Frozen Dog Treats';text-align:start;writing-mode:lr-tb;text-anchor:start;fill:#768b94;fill-opacity:1;stroke:none;stroke-width:1px;stroke-linecap:butt;stroke-linejoin:miter;stroke-opacity:1"
           inkscape:connector-curvature="0" />
        <path
           transform="matrix(3.6169615,0,0,3.6122709,334.68954,163.33399)"
           style="font-style:normal;font-variant:normal;font-weight:normal;font-stretch:normal;font-size:36.68085098px;line-height:125%;font-family:'Frozen Dog Treats';text-align:start;writing-mode:lr-tb;text-anchor:start;fill:#090a0a;fill-opacity:1;stroke:none;stroke-width:1px;stroke-linecap:butt;stroke-linejoin:miter;stroke-opacity:1"
           d="m 15.160497,22.43986 -4.156469,0 -0.916118,3.947813 -7.8251777,0 L 5.6981761,11.54813 C 6.1816747,9.3862509 7.3777168,7.682584 9.2863062,6.4371248 11.194873,5.1917055 13.536061,4.5689858 16.309881,4.568964 l 2.928363,-2.113e-4 -1.374178,6.0262553 -2.934977,0 c -0.534419,1.6e-5 -0.884073,0.06018 -1.062191,0.17766 -0.152702,0.09401 -0.267217,0.352498 -0.343545,0.775462 l -1.145147,4.864269 4.156468,0 -1.374177,6.027461"
           id="path2563"
           sodipodi:nodetypes="cccccsccccscccc"
           inkscape:connector-curvature="0" />
        <path
           transform="matrix(0.71325,0,0,0.71325,964.53825,168.44127)"
           style="font-style:normal;font-variant:normal;font-weight:normal;font-stretch:normal;font-size:39.99996948px;line-height:125%;font-family:'Frozen Dog Treats';text-align:start;writing-mode:lr-tb;text-anchor:start;opacity:0.33699999;fill:#ffffff;fill-opacity:1;stroke:none;stroke-width:4.53122997;stroke-linecap:butt;stroke-linejoin:miter;stroke-miterlimit:4;stroke-opacity:1;filter:url(#filter5563)"
           d="m -802.94733,20.284783 c -11.89878,0.420779 -22.09731,3.215417 -30.48574,8.682149 -9.08794,5.922683 -14.83028,14.004194 -17.13247,24.28485 l -16.25067,70.589618 33.16233,0 4.4091,-19.7484 23.77792,0 14.73897,0 c 11.79135,0 37.92947,-0.75681 42.83116,-25.675579 l 4.15709,-25.039817 c 2.75812,-21.444382 -9.4215,-31.984295 -31.74544,-33.218652 l -10.58178,0 -13.85718,0 -3.02329,0.125831 z m -6.48706,23.412706 18.37129,0 22.45376,0 -6.75186,30.426529 c -0.69215,2.785209 -4.41522,4.090205 -6.28078,4.077788 l -17.27219,0 -24.65207,0 6.75186,-28.85814 c 0.45305,-2.507059 1.13502,-3.991064 2.04124,-4.548301 0.93114,-0.613308 2.77448,-1.023101 5.33875,-1.097876 z"
           id="path2565"
           sodipodi:nodetypes="cscccccccccccccccccccccc"
           inkscape:connector-curvature="0" />
        <path
           transform="matrix(0.71325,0,0,0.71325,964.53825,168.44127)"
           sodipodi:nodetypes="cscccccccccccccccccccccc"
           id="path2567"
           d="m -802.94733,20.284783 c -11.89878,0.420779 -22.09731,3.215417 -30.48574,8.682149 -9.08794,5.922683 -14.83028,14.004194 -17.13247,24.28485 l -16.25067,70.589618 33.16233,0 4.4091,-19.7484 23.77792,0 14.73897,0 c 11.79135,0 37.92947,-0.75681 42.83116,-25.675579 l 4.15709,-25.039817 c 2.75812,-21.444382 -9.4215,-31.984295 -31.74544,-33.218652 l -10.58178,0 -13.85718,0 -3.02329,0.125831 z m -6.48706,23.412706 18.37129,0 22.45376,0 -6.75186,30.426529 c -0.69215,2.785209 -4.41522,4.090205 -6.28078,4.077788 l -17.27219,0 -24.65207,0 6.75186,-28.85814 c 0.45305,-2.507059 1.13502,-3.991064 2.04124,-4.548301 0.93114,-0.613308 2.77448,-1.023101 5.33875,-1.097876 z"
           style="font-style:normal;font-variant:normal;font-weight:normal;font-stretch:normal;font-size:39.99996948px;line-height:125%;font-family:'Frozen Dog Treats';text-align:start;writing-mode:lr-tb;text-anchor:start;opacity:0.24468085;fill:#ffffff;fill-opacity:1;stroke:none;stroke-width:4.53122997;stroke-linecap:butt;stroke-linejoin:miter;stroke-miterlimit:4;stroke-opacity:1;filter:url(#filter5563)"
           inkscape:connector-curvature="0" />
        <path
           style="font-style:normal;font-variant:normal;font-weight:normal;font-stretch:normal;font-size:39.99996948px;line-height:125%;font-family:'Frozen Dog Treats';text-align:start;writing-mode:lr-tb;text-anchor:start;opacity:0.49468085;fill:#d2eff7;fill-opacity:1;stroke:none;stroke-width:4.53122997;stroke-linecap:butt;stroke-linejoin:miter;stroke-miterlimit:4;stroke-opacity:1;filter:url(#filter6603)"
           d="m -802.94733,20.284783 c -11.89878,0.420779 -22.09731,3.215417 -30.48574,8.682149 -9.08794,5.922683 -14.83028,14.004194 -17.13247,24.28485 l -16.25067,70.589618 26.20424,0 4.4091,-19.7484 30.73601,0 14.73897,0 c 11.79135,0 37.92947,-0.75681 42.83116,-25.675579 l 4.15709,-25.039817 c 2.75812,-21.444382 -9.4215,-31.984295 -31.74544,-33.218652 l -10.58178,0 -13.85718,0 -3.02329,0.125831 z m -9.86668,19.044119 23.02326,0 28.1395,0 -8.46157,38.131126 c -0.86741,3.490479 -5.53324,5.125926 -7.8712,5.110365 l -21.64585,0 -30.89446,0 8.46157,-36.16559 c 0.56777,-3.141896 1.42243,-5.00168 2.55812,-5.700021 1.16692,-0.768609 3.47703,-1.28217 6.69063,-1.37588 z"
           id="path2569"
           sodipodi:nodetypes="cscccccccccccccccccccccc"
           transform="matrix(0.6198357,0,0,0.628685,889.03579,174.27779)"
           inkscape:connector-curvature="0" />
      </g>
      <g
         id="g2617"
         transform="matrix(1.2022767,0,0,1.2022767,-96.016197,-29.975211)">
        <g
           style="display:inline;opacity:1"
           id="g2597"
           transform="translate(591.0645,-137.64166)">
          <text
             xml:space="preserve"
             style="font-style:normal;font-variant:normal;font-weight:normal;font-stretch:normal;line-height:0%;font-family:BlendfontsWuestling;-inkscape-font-specification:BlendfontsWuestling;text-align:start;writing-mode:lr-tb;text-anchor:start;fill:#94a4ab;fill-opacity:1;stroke:none;stroke-width:1px;stroke-linecap:butt;stroke-linejoin:miter;stroke-opacity:1"
             x="-499"
             y="393"
             id="text2599"
             transform="matrix(1.6495501,0,0,1.6495501,283.52995,-245.90538)"><tspan
               sodipodi:role="line"
               id="tspan2601"
               x="-499"
               y="393"
               style="font-size:20px;line-height:1.25">Bring out your fonts!</tspan></text>
          <text
             xml:space="preserve"
             style="font-style:normal;font-variant:normal;font-weight:normal;font-stretch:normal;line-height:0%;font-family:'Rough Draft';-inkscape-font-specification:'Rough Draft';text-align:start;writing-mode:lr-tb;text-anchor:start;fill:#c1cace;fill-opacity:1;stroke:none;stroke-width:1px;stroke-linecap:butt;stroke-linejoin:miter;stroke-opacity:1"
             x="-499"
             y="393"
             id="text2603"
             transform="matrix(1.045403,0,0,1.045403,-21.361831,-10.357622)"><tspan
               sodipodi:role="line"
               id="tspan2605"
               x="-499"
               y="393"
               style="font-size:20px;line-height:1.25">Bring out your fonts!</tspan></text>
          <text
             transform="matrix(1.4972432,0,0,1.4972432,208.20529,-187.27928)"
             id="text2607"
             y="393"
             x="-499"
             style="font-style:normal;font-variant:normal;font-weight:normal;font-stretch:normal;line-height:0%;font-family:'IM FELL English PRO';-inkscape-font-specification:'IM FELL English PRO';text-align:start;writing-mode:lr-tb;text-anchor:start;fill:#b2bdc2;fill-opacity:1;stroke:none;stroke-width:1px;stroke-linecap:butt;stroke-linejoin:miter;stroke-opacity:1"
             xml:space="preserve"><tspan
               y="393"
               x="-499"
               id="tspan2609"
               sodipodi:role="line"
               style="font-size:20px;line-height:1.25">Bring out your fonts!</tspan></text>
        </g>
        <text
           transform="matrix(1.2290398,0,0,1.2290398,667.21644,-220.30291)"
           id="text2611"
           y="393"
           x="-499"
           style="font-style:normal;font-variant:normal;font-weight:800;font-stretch:normal;line-height:0%;font-family:BlendfontsMonokultur;-inkscape-font-specification:'BlendfontsMonokultur Ultra-Bold';text-align:start;writing-mode:lr-tb;text-anchor:start;display:inline;fill:#ffffff;fill-opacity:1;stroke:none;stroke-width:1px;stroke-linecap:butt;stroke-linejoin:miter;stroke-opacity:1"
           xml:space="preserve"><tspan
             y="393"
             x="-499"
             id="tspan2613"
             sodipodi:role="line"
             style="font-size:20px;line-height:1.25">Bring out your fonts!</tspan></text>
      </g>
    </g>
    <g
       transform="matrix(0.6078307,0,0,0.6078307,-227.20062,110.29131)"
       id="g2547">
      <g
         transform="matrix(0.9513057,0.7296082,-0.7296082,0.9513057,497.43808,179.62445)"
         inkscape:transform-center-x="-25.708071"
         inkscape:transform-center-y="19.716947"
         style="font-style:normal;font-variant:normal;font-weight:400;font-stretch:normal;font-size:32px;line-height:100%;font-family:'IM FELL FLOWERS 2';-inkscape-font-specification:'Bitstream Vera Sans';text-indent:0;text-align:center;text-decoration:none;text-decoration-line:none;letter-spacing:normal;word-spacing:normal;text-transform:none;writing-mode:lr-tb;direction:ltr;text-anchor:start;display:inline;overflow:visible;visibility:visible;fill:#91a2a9;fill-opacity:1;fill-rule:nonzero;stroke:none;stroke-width:0;stroke-linecap:butt;stroke-linejoin:miter;stroke-miterlimit:0;stroke-dasharray:none;stroke-dashoffset:0;stroke-opacity:1;marker:none;marker-start:none;marker-mid:none;marker-end:none;enable-background:accumulate"
         id="text4380">
        <path
           d="m -15.889334,369.70666 c 0,-0.96 -0.384,-1.12 -1.088,-1.728 -0.032,-0.032 -0.288,-0.288 -0.352,-0.32 -0.768,-0.64 -2.016,-0.864 -3.008,-0.864 -0.544,0 -1.088,0.16 -1.632,0.224 -0.032,0 -0.16,0 -0.288,0 -0.064,0 -0.128,0 -0.128,0 -0.288,0.096 -0.768,0.416 -0.864,0.736 -0.576,0.256 -1.216,0.512 -1.632,0.992 -0.32,0.32 -1.728,1.92 -2.048,2.272 -0.768,0.448 -0.896,1.184 -1.888,1.184 -0.544,0 -0.96,-0.32 -1.472,-0.32 -0.224,0 -0.544,0.448 -0.544,0.64 0,0.864 1.44,1.312 1.728,2.048 0.128,0.288 0.512,1.28 0.544,1.408 0.192,0.512 0.224,0.992 0.32,1.504 0.096,0.384 0.32,0.704 0.448,1.088 0.256,0.832 0.384,1.344 0.864,2.048 0.16,0.224 0.608,0.896 0.64,0.992 0.032,0.032 0.096,0.288 0.128,0.32 0.032,0.064 0.32,0.512 0.416,0.64 0.576,0.8 1.312,1.504 1.952,2.272 0,0.032 0.192,0.192 0.224,0.224 0.576,1.056 0.736,2.016 0.736,3.232 0,1.344 -0.192,2.72 -0.864,3.904 0,0.032 -0.192,0.288 -0.224,0.32 0,0.032 -0.064,0.384 -0.096,0.416 -0.544,0.96 -3.488,2.432 -3.488,2.976 0,0.352 0.416,0.384 0.704,0.384 0.096,0 0.16,0 0.224,0 1.792,0 2.592,-0.768 3.872,-1.856 0,0 0.096,-0.096 0.096,-0.096 0,-0.032 0.096,-0.192 0.096,-0.224 0.064,-0.032 0.512,-0.48 0.544,-0.544 0.032,-0.032 0.192,-0.384 0.224,-0.416 0.032,-0.064 0.416,-0.48 0.448,-0.544 0.032,-0.096 0.16,-0.672 0.192,-0.864 0.064,-0.352 0.224,-1.792 0.224,-2.048 0,-0.064 0,-0.8 0,-1.088 0,-0.16 0,-0.928 0,-1.088 -0.096,-0.224 -0.576,-1.28 -0.64,-1.504 -0.032,-0.064 -0.096,-0.48 -0.128,-0.544 0,-0.032 -0.096,-0.192 -0.096,-0.224 -0.032,-0.096 -0.192,-0.48 -0.224,-0.512 0,-0.032 0,-0.064 0,-0.064 0,-0.032 0,-0.064 0,-0.064 0.032,-0.032 0.096,-0.096 0.128,-0.096 0.288,0 0.864,0.64 1.28,0.736 0.768,0.192 1.952,-0.032 2.592,0.448 h 3.136 c 0.064,-0.032 0.352,-0.192 0.448,-0.224 0,0 0.064,0 0.096,0 0.352,0 0.704,0.128 1.088,0.128 0.48,0 0.928,-0.128 1.408,-0.128 0.992,0 1.952,0.32 2.912,0.544 0.448,0.096 0.864,0.064 1.28,0.224 0.032,0 0.192,0.096 0.224,0.096 0.064,0.032 0.576,0.096 0.64,0.128 0.032,0 0.192,0.16 0.224,0.192 0,0 0,0.064 0,0.064 0,0 0,0.064 0,0.064 -0.032,0.032 -0.192,0.192 -0.224,0.192 -0.064,0.032 -0.672,0.096 -0.736,0.128 -0.128,0.032 -0.992,0.48 -1.088,0.544 -0.064,0 -0.48,0.096 -0.544,0.096 -0.544,0.16 -0.896,0.608 -1.28,0.96 -0.32,0.288 -0.704,0.48 -0.864,0.864 -0.032,0.064 -0.192,0.608 -0.224,0.672 -0.032,0.032 -0.224,0.384 -0.224,0.416 -0.032,0.096 -0.096,0.544 -0.096,0.672 0,0.032 -0.032,0.64 -0.032,0.864 0,0.128 0.032,0.704 0.032,0.864 0.48,1.12 1.12,1.888 1.92,2.784 0.032,0.032 0.128,0.096 0.128,0.128 0.096,0.064 0.864,0.576 0.96,0.64 0.064,0.032 0.384,0.288 0.448,0.32 0.032,0.032 0.48,0.096 0.544,0.096 0.032,0.032 0.384,0.32 0.416,0.352 0.064,0.032 0.384,0.192 0.448,0.192 0.032,0.032 0.48,0.096 0.544,0.128 0.096,0.032 0.96,0.288 1.056,0.32 0.48,0.096 2.08,0.416 2.272,0.416 0.128,0.032 2.78400003,0.192 3.77600003,0.224 0.032,0 0.192,0 0.256,0 0.19199997,0 0.28799997,0 0.51199997,-0.096 1.696,-0.128 3.52,-0.256 5.184,-0.768 0.192,-0.064 1.664,-0.672 1.856,-0.768 0.032,0 0.48,-0.064 0.512,-0.096 1.28,-0.416 2.688,-1.088 3.808,-1.728 0.064,-0.032 0.576,-0.48 0.64,-0.544 0.064,-0.032 0.576,-0.288 0.64,-0.32 0.096,-0.032 0.544,-0.352 0.64,-0.416 0.512,-0.384 0.928,-0.8 1.408,-1.216 0.704,-0.576 1.472,-1.024 2.048,-1.728 0.448,-0.512 0.768,-1.088 1.216,-1.6 0.064,-0.128 0.384,-0.48 0.416,-0.544 0.48,-0.704 0.832,-1.472 1.312,-2.176 0.032,-0.064 0.48,-0.672 0.512,-0.736 0.032,-0.032 0.096,-0.288 0.128,-0.32 0,-0.032 0.096,-0.192 0.096,-0.224 0.352,-0.608 0.864,-1.568 0.864,-2.272 0,-0.192 -0.096,-0.352 -0.096,-0.544 0,-0.224 0.192,-0.416 0.224,-0.64 0,-0.096 0.064,-0.928 0.096,-1.184 0,-0.032 0,-0.128 0,-0.16 0,-0.032 0,-0.16 0,-0.192 0,-0.512 -0.096,-3.008 -0.096,-3.552 -0.32,-0.512 -0.448,-1.088 -0.768,-1.632 -0.128,-0.192 -0.8,-1.248 -0.96,-1.504 -0.352,-0.48 -1.472,-0.64 -1.952,-0.64 -0.352,0 -1.184,0.224 -1.408,0.416 -0.064,0.064 -0.48,0.512 -0.544,0.544 -0.224,0.192 -0.608,0.416 -0.64,0.768 0,0.032 0.064,0.416 0.096,0.544 0,0 0.096,0.064 0.128,0.096 0.448,0.384 0.8,0.448 1.376,0.448 0.512,0 1.024,-0.224 1.408,-0.224 0.32,0 0.832,0.16 1.088,0.32 0.064,0.128 0.288,0.64 0.32,0.768 0.032,0.032 0.224,0.384 0.224,0.416 0.064,0.16 0.384,1.472 0.416,1.632 0.032,0.032 0.224,0.384 0.224,0.416 0,0.064 -0.096,0.384 -0.096,0.448 -0.032,0.128 -0.192,1.248 -0.224,1.408 -0.064,0.32 -0.16,0.896 -0.32,1.184 -0.224,0.384 -0.512,0.448 -0.544,0.864 -0.128,0.16 -0.8,0.832 -0.96,0.96 -0.608,0.512 -1.44,0.416 -2.176,0.544 -0.544,0.096 -0.992,0.544 -1.568,0.544 0,0 -0.032,0 -0.032,0 -0.096,-0.032 -0.704,-0.192 -0.768,-0.224 -0.064,0 -0.576,0 -0.64,0 -0.096,0 -0.448,-0.064 -0.544,-0.096 -0.032,0 -0.192,-0.096 -0.224,-0.096 -0.032,0 -0.096,0 -0.16,0 -0.16,0 -0.352,0 -0.384,0 -0.448,-0.064 -0.864,-0.32 -1.28,-0.448 -0.608,-0.192 -0.928,-0.256 -1.408,-0.544 -0.032,-0.032 -0.192,-0.096 -0.224,-0.096 -0.064,-0.032 -0.576,-0.192 -0.64,-0.224 -0.064,-0.032 -0.608,-0.384 -0.672,-0.416 -0.064,-0.064 -0.576,-0.32 -0.64,-0.352 -0.64,-0.352 -1.12,-0.928 -1.728,-1.28 -0.064,-0.064 -0.704,-0.384 -0.768,-0.448 -0.032,-0.032 -0.64,-0.768 -0.864,-1.056 0,-0.032 -0.16,-0.32 -0.192,-0.352 -0.032,0 -0.32,-0.16 -0.32,-0.192 -0.128,-0.128 -0.992,-0.992 -1.088,-1.088 -0.096,-0.096 -0.896,-0.672 -0.992,-0.768 -0.032,-0.032 -0.48,-0.48 -0.512,-0.544 -0.704,-0.608 -1.59999997,-1.088 -2.39999997,-1.504 -0.92800003,-0.48 -2.01600003,-0.448 -3.00800003,-0.64 0,0 -0.032,0 -0.064,0 -1.248,0 -2.496,0.512 -3.52,1.184 -0.288,0.192 -0.352,0.672 -0.64,0.864 -0.48,0.32 -0.864,0.48 -1.088,1.088 -0.192,0.576 -0.224,1.312 -0.224,1.92 0,0.128 0,0.224 0,0.352 0,0.48 0.032,0.96 0.224,1.408 0.192,0.352 0.704,1.408 0.768,1.504 0.352,0.576 1.312,0.736 1.312,1.504 0,0.192 -0.032,0.352 -0.224,0.352 -0.32,0 -0.544,-0.32 -0.864,-0.352 -0.128,0 -1.088,0 -1.216,0 0,0 -0.224,-0.064 -0.32,-0.096 0,0 -0.192,-0.096 -0.192,-0.128 -0.512,-0.128 -1.024,-0.096 -1.536,-0.192 -0.672,-0.16 -1.504,-0.192 -2.144,-0.224 -0.032,0 -0.096,0 -0.128,0 -0.128,0 -0.32,0 -0.48,0 -0.224,0 -0.416,0 -0.576,-0.096 -0.256,0 -0.928,0.032 -1.632,0.032 -0.672,0 -1.376,-0.032 -1.632,-0.032 -0.16,-0.032 -1.28,-0.256 -1.6,-0.352 -0.096,0 -0.704,-0.288 -0.768,-0.32 -0.032,0 -0.384,-0.064 -0.416,-0.096 -0.032,0 -0.096,-0.192 -0.128,-0.224 0,0 -0.16,-0.096 -0.224,-0.096 -0.384,-0.16 -1.088,-0.192 -1.376,-0.544 -0.064,-0.064 -0.416,-0.48 -0.448,-0.544 -0.352,-0.416 -0.864,-0.928 -1.184,-1.408 -0.16,-0.224 -0.192,-0.512 -0.32,-0.768 -0.448,-0.704 -0.832,-1.408 -1.184,-2.144 -0.032,-0.032 -0.096,-0.096 -0.128,-0.096 -0.032,-0.224 -0.096,-1.216 -0.096,-1.408 0,-0.032 0,-0.448 0,-0.608 0,-0.096 0,-0.512 0,-0.576 0.032,-0.032 0.096,-0.192 0.096,-0.224 0.032,-0.128 0.096,-1.088 0.128,-1.184 0.032,-0.256 0.256,-1.152 0.32,-1.312 0.416,-1.184 1.344,-2.176 2.272,-3.008 0.032,-0.064 0.256,-0.192 0.32,-0.224 0.032,-0.032 0.288,-0.096 0.32,-0.128 0.352,-0.192 0.352,-0.384 0.768,-0.416 0.096,0 0.672,-0.032 0.8,-0.032 1.376,0 2.304,0.448 3.296,1.312 0.416,0.384 0.672,0.768 1.184,0.992 0.128,-0.192 0.128,-0.352 0.128,-0.544 0,-0.064 0,-0.16 0,-0.224 z"
           id="path4572"
           inkscape:connector-curvature="0" />
      </g>
      <g
         transform="matrix(-0.9513057,0.7296082,0.7296082,0.9513057,-127.25982,179.62445)"
         inkscape:transform-center-x="25.708071"
         inkscape:transform-center-y="19.716947"
         style="font-style:normal;font-variant:normal;font-weight:400;font-stretch:normal;font-size:32px;line-height:100%;font-family:'IM FELL FLOWERS 2';-inkscape-font-specification:'Bitstream Vera Sans';text-indent:0;text-align:center;text-decoration:none;text-decoration-line:none;letter-spacing:normal;word-spacing:normal;text-transform:none;writing-mode:lr-tb;direction:ltr;text-anchor:start;display:inline;overflow:visible;visibility:visible;fill:#91a2a9;fill-opacity:1;fill-rule:nonzero;stroke:none;stroke-width:0;stroke-linecap:butt;stroke-linejoin:miter;stroke-miterlimit:0;stroke-dasharray:none;stroke-dashoffset:0;stroke-opacity:1;marker:none;marker-start:none;marker-mid:none;marker-end:none;enable-background:accumulate"
         id="text2543">
        <path
           d="m -15.889334,369.70666 c 0,-0.96 -0.384,-1.12 -1.088,-1.728 -0.032,-0.032 -0.288,-0.288 -0.352,-0.32 -0.768,-0.64 -2.016,-0.864 -3.008,-0.864 -0.544,0 -1.088,0.16 -1.632,0.224 -0.032,0 -0.16,0 -0.288,0 -0.064,0 -0.128,0 -0.128,0 -0.288,0.096 -0.768,0.416 -0.864,0.736 -0.576,0.256 -1.216,0.512 -1.632,0.992 -0.32,0.32 -1.728,1.92 -2.048,2.272 -0.768,0.448 -0.896,1.184 -1.888,1.184 -0.544,0 -0.96,-0.32 -1.472,-0.32 -0.224,0 -0.544,0.448 -0.544,0.64 0,0.864 1.44,1.312 1.728,2.048 0.128,0.288 0.512,1.28 0.544,1.408 0.192,0.512 0.224,0.992 0.32,1.504 0.096,0.384 0.32,0.704 0.448,1.088 0.256,0.832 0.384,1.344 0.864,2.048 0.16,0.224 0.608,0.896 0.64,0.992 0.032,0.032 0.096,0.288 0.128,0.32 0.032,0.064 0.32,0.512 0.416,0.64 0.576,0.8 1.312,1.504 1.952,2.272 0,0.032 0.192,0.192 0.224,0.224 0.576,1.056 0.736,2.016 0.736,3.232 0,1.344 -0.192,2.72 -0.864,3.904 0,0.032 -0.192,0.288 -0.224,0.32 0,0.032 -0.064,0.384 -0.096,0.416 -0.544,0.96 -3.488,2.432 -3.488,2.976 0,0.352 0.416,0.384 0.704,0.384 0.096,0 0.16,0 0.224,0 1.792,0 2.592,-0.768 3.872,-1.856 0,0 0.096,-0.096 0.096,-0.096 0,-0.032 0.096,-0.192 0.096,-0.224 0.064,-0.032 0.512,-0.48 0.544,-0.544 0.032,-0.032 0.192,-0.384 0.224,-0.416 0.032,-0.064 0.416,-0.48 0.448,-0.544 0.032,-0.096 0.16,-0.672 0.192,-0.864 0.064,-0.352 0.224,-1.792 0.224,-2.048 0,-0.064 0,-0.8 0,-1.088 0,-0.16 0,-0.928 0,-1.088 -0.096,-0.224 -0.576,-1.28 -0.64,-1.504 -0.032,-0.064 -0.096,-0.48 -0.128,-0.544 0,-0.032 -0.096,-0.192 -0.096,-0.224 -0.032,-0.096 -0.192,-0.48 -0.224,-0.512 0,-0.032 0,-0.064 0,-0.064 0,-0.032 0,-0.064 0,-0.064 0.032,-0.032 0.096,-0.096 0.128,-0.096 0.288,0 0.864,0.64 1.28,0.736 0.768,0.192 1.952,-0.032 2.592,0.448 h 3.136 c 0.064,-0.032 0.352,-0.192 0.448,-0.224 0,0 0.064,0 0.096,0 0.352,0 0.704,0.128 1.088,0.128 0.48,0 0.928,-0.128 1.408,-0.128 0.992,0 1.952,0.32 2.912,0.544 0.448,0.096 0.864,0.064 1.28,0.224 0.032,0 0.192,0.096 0.224,0.096 0.064,0.032 0.576,0.096 0.64,0.128 0.032,0 0.192,0.16 0.224,0.192 0,0 0,0.064 0,0.064 0,0 0,0.064 0,0.064 -0.032,0.032 -0.192,0.192 -0.224,0.192 -0.064,0.032 -0.672,0.096 -0.736,0.128 -0.128,0.032 -0.992,0.48 -1.088,0.544 -0.064,0 -0.48,0.096 -0.544,0.096 -0.544,0.16 -0.896,0.608 -1.28,0.96 -0.32,0.288 -0.704,0.48 -0.864,0.864 -0.032,0.064 -0.192,0.608 -0.224,0.672 -0.032,0.032 -0.224,0.384 -0.224,0.416 -0.032,0.096 -0.096,0.544 -0.096,0.672 0,0.032 -0.032,0.64 -0.032,0.864 0,0.128 0.032,0.704 0.032,0.864 0.48,1.12 1.12,1.888 1.92,2.784 0.032,0.032 0.128,0.096 0.128,0.128 0.096,0.064 0.864,0.576 0.96,0.64 0.064,0.032 0.384,0.288 0.448,0.32 0.032,0.032 0.48,0.096 0.544,0.096 0.032,0.032 0.384,0.32 0.416,0.352 0.064,0.032 0.384,0.192 0.448,0.192 0.032,0.032 0.48,0.096 0.544,0.128 0.096,0.032 0.96,0.288 1.056,0.32 0.48,0.096 2.08,0.416 2.272,0.416 0.128,0.032 2.78400003,0.192 3.77600003,0.224 0.032,0 0.192,0 0.256,0 0.19199997,0 0.28799997,0 0.51199997,-0.096 1.696,-0.128 3.52,-0.256 5.184,-0.768 0.192,-0.064 1.664,-0.672 1.856,-0.768 0.032,0 0.48,-0.064 0.512,-0.096 1.28,-0.416 2.688,-1.088 3.808,-1.728 0.064,-0.032 0.576,-0.48 0.64,-0.544 0.064,-0.032 0.576,-0.288 0.64,-0.32 0.096,-0.032 0.544,-0.352 0.64,-0.416 0.512,-0.384 0.928,-0.8 1.408,-1.216 0.704,-0.576 1.472,-1.024 2.048,-1.728 0.448,-0.512 0.768,-1.088 1.216,-1.6 0.064,-0.128 0.384,-0.48 0.416,-0.544 0.48,-0.704 0.832,-1.472 1.312,-2.176 0.032,-0.064 0.48,-0.672 0.512,-0.736 0.032,-0.032 0.096,-0.288 0.128,-0.32 0,-0.032 0.096,-0.192 0.096,-0.224 0.352,-0.608 0.864,-1.568 0.864,-2.272 0,-0.192 -0.096,-0.352 -0.096,-0.544 0,-0.224 0.192,-0.416 0.224,-0.64 0,-0.096 0.064,-0.928 0.096,-1.184 0,-0.032 0,-0.128 0,-0.16 0,-0.032 0,-0.16 0,-0.192 0,-0.512 -0.096,-3.008 -0.096,-3.552 -0.32,-0.512 -0.448,-1.088 -0.768,-1.632 -0.128,-0.192 -0.8,-1.248 -0.96,-1.504 -0.352,-0.48 -1.472,-0.64 -1.952,-0.64 -0.352,0 -1.184,0.224 -1.408,0.416 -0.064,0.064 -0.48,0.512 -0.544,0.544 -0.224,0.192 -0.608,0.416 -0.64,0.768 0,0.032 0.064,0.416 0.096,0.544 0,0 0.096,0.064 0.128,0.096 0.448,0.384 0.8,0.448 1.376,0.448 0.512,0 1.024,-0.224 1.408,-0.224 0.32,0 0.832,0.16 1.088,0.32 0.064,0.128 0.288,0.64 0.32,0.768 0.032,0.032 0.224,0.384 0.224,0.416 0.064,0.16 0.384,1.472 0.416,1.632 0.032,0.032 0.224,0.384 0.224,0.416 0,0.064 -0.096,0.384 -0.096,0.448 -0.032,0.128 -0.192,1.248 -0.224,1.408 -0.064,0.32 -0.16,0.896 -0.32,1.184 -0.224,0.384 -0.512,0.448 -0.544,0.864 -0.128,0.16 -0.8,0.832 -0.96,0.96 -0.608,0.512 -1.44,0.416 -2.176,0.544 -0.544,0.096 -0.992,0.544 -1.568,0.544 0,0 -0.032,0 -0.032,0 -0.096,-0.032 -0.704,-0.192 -0.768,-0.224 -0.064,0 -0.576,0 -0.64,0 -0.096,0 -0.448,-0.064 -0.544,-0.096 -0.032,0 -0.192,-0.096 -0.224,-0.096 -0.032,0 -0.096,0 -0.16,0 -0.16,0 -0.352,0 -0.384,0 -0.448,-0.064 -0.864,-0.32 -1.28,-0.448 -0.608,-0.192 -0.928,-0.256 -1.408,-0.544 -0.032,-0.032 -0.192,-0.096 -0.224,-0.096 -0.064,-0.032 -0.576,-0.192 -0.64,-0.224 -0.064,-0.032 -0.608,-0.384 -0.672,-0.416 -0.064,-0.064 -0.576,-0.32 -0.64,-0.352 -0.64,-0.352 -1.12,-0.928 -1.728,-1.28 -0.064,-0.064 -0.704,-0.384 -0.768,-0.448 -0.032,-0.032 -0.64,-0.768 -0.864,-1.056 0,-0.032 -0.16,-0.32 -0.192,-0.352 -0.032,0 -0.32,-0.16 -0.32,-0.192 -0.128,-0.128 -0.992,-0.992 -1.088,-1.088 -0.096,-0.096 -0.896,-0.672 -0.992,-0.768 -0.032,-0.032 -0.48,-0.48 -0.512,-0.544 -0.704,-0.608 -1.59999997,-1.088 -2.39999997,-1.504 -0.92800003,-0.48 -2.01600003,-0.448 -3.00800003,-0.64 0,0 -0.032,0 -0.064,0 -1.248,0 -2.496,0.512 -3.52,1.184 -0.288,0.192 -0.352,0.672 -0.64,0.864 -0.48,0.32 -0.864,0.48 -1.088,1.088 -0.192,0.576 -0.224,1.312 -0.224,1.92 0,0.128 0,0.224 0,0.352 0,0.48 0.032,0.96 0.224,1.408 0.192,0.352 0.704,1.408 0.768,1.504 0.352,0.576 1.312,0.736 1.312,1.504 0,0.192 -0.032,0.352 -0.224,0.352 -0.32,0 -0.544,-0.32 -0.864,-0.352 -0.128,0 -1.088,0 -1.216,0 0,0 -0.224,-0.064 -0.32,-0.096 0,0 -0.192,-0.096 -0.192,-0.128 -0.512,-0.128 -1.024,-0.096 -1.536,-0.192 -0.672,-0.16 -1.504,-0.192 -2.144,-0.224 -0.032,0 -0.096,0 -0.128,0 -0.128,0 -0.32,0 -0.48,0 -0.224,0 -0.416,0 -0.576,-0.096 -0.256,0 -0.928,0.032 -1.632,0.032 -0.672,0 -1.376,-0.032 -1.632,-0.032 -0.16,-0.032 -1.28,-0.256 -1.6,-0.352 -0.096,0 -0.704,-0.288 -0.768,-0.32 -0.032,0 -0.384,-0.064 -0.416,-0.096 -0.032,0 -0.096,-0.192 -0.128,-0.224 0,0 -0.16,-0.096 -0.224,-0.096 -0.384,-0.16 -1.088,-0.192 -1.376,-0.544 -0.064,-0.064 -0.416,-0.48 -0.448,-0.544 -0.352,-0.416 -0.864,-0.928 -1.184,-1.408 -0.16,-0.224 -0.192,-0.512 -0.32,-0.768 -0.448,-0.704 -0.832,-1.408 -1.184,-2.144 -0.032,-0.032 -0.096,-0.096 -0.128,-0.096 -0.032,-0.224 -0.096,-1.216 -0.096,-1.408 0,-0.032 0,-0.448 0,-0.608 0,-0.096 0,-0.512 0,-0.576 0.032,-0.032 0.096,-0.192 0.096,-0.224 0.032,-0.128 0.096,-1.088 0.128,-1.184 0.032,-0.256 0.256,-1.152 0.32,-1.312 0.416,-1.184 1.344,-2.176 2.272,-3.008 0.032,-0.064 0.256,-0.192 0.32,-0.224 0.032,-0.032 0.288,-0.096 0.32,-0.128 0.352,-0.192 0.352,-0.384 0.768,-0.416 0.096,0 0.672,-0.032 0.8,-0.032 1.376,0 2.304,0.448 3.296,1.312 0.416,0.384 0.672,0.768 1.184,0.992 0.128,-0.192 0.128,-0.352 0.128,-0.544 0,-0.064 0,-0.16 0,-0.224 z"
           id="path4569"
           inkscape:connector-curvature="0" />
      </g>
    </g>
    <g
       id="g4279"
       transform="matrix(1.3375458,0,0.00699228,1.31652,-2106.6862,-820.58355)"
       style="fill:#000000;fill-opacity:0.53617021;filter:url(#filter3294)" />
    <g
       id="g4254">
      <text
         id="text4291"
         y="134.60242"
         x="486.26288"
         style="color:#000000;font-style:normal;font-variant:normal;font-weight:bold;font-stretch:normal;line-height:0%;font-family:Eczar;-inkscape-font-specification:'Eczar, Bold';text-indent:0;text-align:start;text-decoration:none;text-decoration-line:none;text-decoration-style:solid;text-decoration-color:#000000;letter-spacing:normal;word-spacing:normal;text-transform:none;writing-mode:lr-tb;direction:ltr;baseline-shift:baseline;text-anchor:start;white-space:normal;clip-rule:nonzero;display:inline;overflow:visible;visibility:visible;opacity:1;isolation:auto;mix-blend-mode:normal;color-interpolation:sRGB;color-interpolation-filters:linearRGB;solid-color:#000000;solid-opacity:1;fill-opacity:1;fill-rule:nonzero;color-rendering:auto;image-rendering:auto;shape-rendering:auto;text-rendering:auto;enable-background:accumulate"
         xml:space="preserve"><tspan
           style="font-size:53.65874863px;line-height:1.10000002;fill-opacity:1"
           y="134.60242"
           x="486.26288"
           id="tspan4293"
           sodipodi:role="line">fonty</tspan></text>
      <text
         xml:space="preserve"
         style="color:#000000;font-style:normal;font-variant:normal;font-weight:bold;font-stretch:normal;line-height:0%;font-family:Eczar;-inkscape-font-specification:'Eczar, Bold';text-indent:0;text-align:start;text-decoration:none;text-decoration-line:none;text-decoration-style:solid;text-decoration-color:#000000;letter-spacing:normal;word-spacing:normal;text-transform:none;writing-mode:lr-tb;direction:ltr;baseline-shift:baseline;text-anchor:start;white-space:normal;clip-rule:nonzero;display:inline;overflow:visible;visibility:visible;opacity:1;isolation:auto;mix-blend-mode:normal;color-interpolation:sRGB;color-interpolation-filters:linearRGB;solid-color:#000000;solid-opacity:1;fill-opacity:1;fill-rule:nonzero;color-rendering:auto;image-rendering:auto;shape-rendering:auto;text-rendering:auto;enable-background:accumulate"
         x="630.33429"
         y="134.92427"
         id="text4295"><tspan
           sodipodi:role="line"
           id="tspan4297"
           x="630.33429"
           y="134.92427"
           style="font-size:53.65874863px;line-height:1.10000002">python</tspan></text>
    </g>
    <use
       height="1052.3622"
       width="744.09448"
       transform="matrix(0.6280189,0,0,0.62407054,490.02033,190.24154)"
       id="use4301"
       xlink:href="#path1917"
       y="0"
       x="0"
       style="stroke-width:9.58402753;stroke-miterlimit:4;stroke-dasharray:none;stroke:#90a1a8;stroke-opacity:1;paint-order:markers fill stroke;fill:#90a1a8;fill-opacity:1" />
    <g
       id="g999">
      <path
         style="font-style:normal;font-variant:normal;font-weight:normal;font-stretch:normal;font-size:39.99996948px;line-height:125%;font-family:'Frozen Dog Treats';text-align:start;writing-mode:lr-tb;text-anchor:start;fill:#999999;fill-opacity:1;stroke:#ffffff;stroke-width:3.23189998;stroke-linecap:butt;stroke-linejoin:miter;stroke-miterlimit:4;stroke-dasharray:none;stroke-opacity:1"
         d="m 427.69691,180.03584 c -7.95837,0.27966 -14.77954,2.13707 -20.39007,5.77046 -6.07838,3.93642 -9.91909,9.30768 -11.45888,16.14057 l -10.86911,46.91635 h 24.85567 l 2.94898,-12.46085 h 13.22827 9.85799 c 7.88656,0 25.36879,-1.16763 28.64721,-17.72953 l 2.78046,-16.64235 c 1.84475,-14.25269 -6.30146,-21.25789 -21.23264,-22.07829 h -7.07752 -9.26821 z m -2.94899,18.90034 h 9.85802 12.04866 l -3.62302,16.2242 c -0.37137,1.48515 -2.36918,2.181 -3.37027,2.17438 h -9.2682 -13.22828 l 3.62305,-15.38789 c 0.24306,-1.33683 0.60901,-2.12814 1.09533,-2.42527 0.49961,-0.32703 1.48872,-0.54555 2.86471,-0.58542 z"
         id="path4305"
         sodipodi:nodetypes="csccccccccccccccccccccsc"
         inkscape:export-filename="/home/donn/Projects/pythoning/fontyPython/designfiles/biglogo.png"
         inkscape:export-xdpi="96"
         inkscape:export-ydpi="96"
         inkscape:connector-curvature="0" />
      <path
         sodipodi:nodetypes="ccccccccccc"
         id="path4307"
         d="M 404.31454,236.25607 H 435.834 c 7.88654,0 25.37814,-1.18383 28.65655,-17.74572 l 2.84045,-16.63168 c 1.84472,-14.25268 -6.35653,-21.27326 -21.2877,-22.09365 l -18.34237,0.0425 -2.94367,19.00422 h 21.93137 l -3.63042,16.22839 c -0.37135,1.48514 -2.37605,2.15589 -3.37713,2.14926 l -38.25772,0.0436"
         style="font-style:normal;font-variant:normal;font-weight:normal;font-stretch:normal;font-size:39.99996948px;line-height:125%;font-family:'Frozen Dog Treats';text-align:start;writing-mode:lr-tb;text-anchor:start;fill:#768b94;fill-opacity:1;stroke:none;stroke-width:3.17265987px;stroke-linecap:butt;stroke-linejoin:miter;stroke-opacity:1"
         inkscape:connector-curvature="0" />
      <path
         style="font-style:normal;font-variant:normal;font-weight:normal;font-stretch:normal;font-size:36.68085098px;line-height:125%;font-family:'Frozen Dog Treats';text-align:start;writing-mode:lr-tb;text-anchor:start;fill:#090a0a;fill-opacity:1;stroke:none;stroke-width:3.17265987px;stroke-linecap:butt;stroke-linejoin:miter;stroke-opacity:1"
         d="m 426.02322,236.26879 h -13.23729 l -2.91761,12.47753 h -24.9212 l 10.94101,-46.90215 c 1.53982,-6.83287 5.34891,-12.21752 11.42729,-16.15394 6.0783,-3.93629 13.53439,-5.90447 22.3683,-5.90454 l 9.32609,-6.7e-4 -4.37641,19.0467 h -9.34715 c -1.70199,5e-5 -2.81555,0.1902 -3.38281,0.56151 -0.48632,0.29713 -0.85102,1.11412 -1.0941,2.45094 l -3.64701,15.37411 h 13.2373 l -4.37641,19.05051"
         id="path4309"
         sodipodi:nodetypes="cccccsccccscccc"
         inkscape:connector-curvature="0" />
      <path
         transform="matrix(0.6280189,0,0,0.62407054,932.32469,169.81363)"
         style="font-style:normal;font-variant:normal;font-weight:normal;font-stretch:normal;font-size:39.99996948px;line-height:125%;font-family:'Frozen Dog Treats';text-align:start;writing-mode:lr-tb;text-anchor:start;opacity:0.33699999;fill:#ffffff;fill-opacity:1;stroke:none;stroke-width:4.53122997;stroke-linecap:butt;stroke-linejoin:miter;stroke-miterlimit:4;stroke-opacity:1;filter:url(#filter5563)"
         d="m -802.94733,20.284783 c -11.89878,0.420779 -22.09731,3.215417 -30.48574,8.682149 -9.08794,5.922683 -14.83028,14.004194 -17.13247,24.28485 l -16.25067,70.589618 h 33.16233 l 4.4091,-19.7484 h 23.77792 14.73897 c 11.79135,0 37.92947,-0.75681 42.83116,-25.675579 l 4.15709,-25.039817 c 2.75812,-21.444382 -9.4215,-31.984295 -31.74544,-33.218652 h -10.58178 -13.85718 z m -6.48706,23.412706 h 18.37129 22.45376 l -6.75186,30.426529 c -0.69215,2.785209 -4.41522,4.090205 -6.28078,4.077788 h -17.27219 -24.65207 l 6.75186,-28.85814 c 0.45305,-2.507059 1.13502,-3.991064 2.04124,-4.548301 0.93114,-0.613308 2.77448,-1.023101 5.33875,-1.097876 z"
         id="path4311"
         sodipodi:nodetypes="cscccccccccccccccccccccc"
         inkscape:connector-curvature="0" />
      <path
         transform="matrix(0.6280189,0,0,0.62407054,932.32469,169.81363)"
         sodipodi:nodetypes="cscccccccccccccccccccccc"
         id="path4313"
         d="m -802.94733,20.284783 c -11.89878,0.420779 -22.09731,3.215417 -30.48574,8.682149 -9.08794,5.922683 -14.83028,14.004194 -17.13247,24.28485 l -16.25067,70.589618 h 33.16233 l 4.4091,-19.7484 h 23.77792 14.73897 c 11.79135,0 37.92947,-0.75681 42.83116,-25.675579 l 4.15709,-25.039817 c 2.75812,-21.444382 -9.4215,-31.984295 -31.74544,-33.218652 h -10.58178 -13.85718 z m -6.48706,23.412706 h 18.37129 22.45376 l -6.75186,30.426529 c -0.69215,2.785209 -4.41522,4.090205 -6.28078,4.077788 h -17.27219 -24.65207 l 6.75186,-28.85814 c 0.45305,-2.507059 1.13502,-3.991064 2.04124,-4.548301 0.93114,-0.613308 2.77448,-1.023101 5.33875,-1.097876 z"
         style="font-style:normal;font-variant:normal;font-weight:normal;font-stretch:normal;font-size:39.99996948px;line-height:125%;font-family:'Frozen Dog Treats';text-align:start;writing-mode:lr-tb;text-anchor:start;opacity:0.24468085;fill:#ffffff;fill-opacity:1;stroke:none;stroke-width:4.53122997;stroke-linecap:butt;stroke-linejoin:miter;stroke-miterlimit:4;stroke-opacity:1;filter:url(#filter5563)"
         inkscape:connector-curvature="0" />
      <path
         style="font-style:normal;font-variant:normal;font-weight:normal;font-stretch:normal;font-size:39.99996948px;line-height:125%;font-family:'Frozen Dog Treats';text-align:start;writing-mode:lr-tb;text-anchor:start;opacity:0.49468085;fill:#d2eff7;fill-opacity:1;stroke:none;stroke-width:4.53122997;stroke-linecap:butt;stroke-linejoin:miter;stroke-miterlimit:4;stroke-opacity:1;filter:url(#filter6603)"
         d="m -802.94733,20.284783 c -11.89878,0.420779 -22.09731,3.215417 -30.48574,8.682149 -9.08794,5.922683 -14.83028,14.004194 -17.13247,24.28485 l -16.25067,70.589618 h 26.20424 l 4.4091,-19.7484 h 30.73601 14.73897 c 11.79135,0 37.92947,-0.75681 42.83116,-25.675579 l 4.15709,-25.039817 c 2.75812,-21.444382 -9.4215,-31.984295 -31.74544,-33.218652 h -10.58178 -13.85718 z m -9.86668,19.044119 h 23.02326 28.1395 l -8.46157,38.131126 c -0.86741,3.490479 -5.53324,5.125926 -7.8712,5.110365 h -21.64585 -30.89446 l 8.46157,-36.16559 c 0.56777,-3.141896 1.42243,-5.00168 2.55812,-5.700021 1.16692,-0.768609 3.47703,-1.28217 6.69063,-1.37588 z"
         id="path4315"
         sodipodi:nodetypes="cscccccccccccccccccccccc"
         transform="matrix(0.54576731,0,0,0.55007892,865.84454,174.9204)"
         inkscape:connector-curvature="0" />
    </g>
    <text
       xml:space="preserve"
       style="font-style:italic;font-variant:normal;font-weight:bold;font-stretch:normal;line-height:0%;font-family:Rosario;-inkscape-font-specification:'Rosario, Bold Italic';text-align:start;writing-mode:lr-tb;text-anchor:start;display:inline;fill:#829095;fill-opacity:1;stroke:none;stroke-width:1px;stroke-linecap:butt;stroke-linejoin:miter;stroke-opacity:1"
       x="650.09503"
       y="258.67145"
       id="text4333"
       transform="scale(0.99930907,1.0006914)"><tspan
         sodipodi:role="line"
         id="tspan4335"
         x="650.09503"
         y="258.67145"
         style="font-size:21.48762512px;line-height:1.25">Bring out your fonts!</tspan></text>
    <use
       x="0"
       y="0"
       xlink:href="#g4254"
       id="use4260"
       transform="translate(0.39644661,93.646447)"
       width="100%"
       height="100%"
       style="fill:#a0b2ba;fill-opacity:1;stroke:none" />
    <text
       transform="scale(0.99930907,1.0006914)"
       id="text98"
       y="402.0723"
       x="650.09503"
       style="font-style:italic;font-variant:normal;font-weight:bold;font-stretch:normal;line-height:0%;font-family:Rosario;-inkscape-font-specification:'Rosario, Bold Italic';text-align:start;writing-mode:lr-tb;text-anchor:start;display:inline;fill:#829095;fill-opacity:1;stroke:none;stroke-width:1px;stroke-linecap:butt;stroke-linejoin:miter;stroke-opacity:1"
       xml:space="preserve"><tspan
         style="font-size:21.48762512px;line-height:1.25"
         y="402.0723"
         x="650.09503"
         id="tspan96"
         sodipodi:role="line">Bring out your fonts!</tspan></text>
    <use
       style="fill:url(#linearGradient102);fill-opacity:1;stroke:none"
       height="100%"
       width="100%"
       transform="translate(0.39644661,237.14644)"
       id="use100"
       xlink:href="#g4254"
       y="0"
       x="0" />
    <g
       transform="matrix(0.88050319,0,0,0.87496746,3.1426229,151.12643)"
       id="g983">
      <use
         style="filter:url(#filter6587)"
         height="1052.3622"
         width="744.09448"
         transform="matrix(0.71325,0,0,0.71325,465.97126,196.58107)"
         id="use967"
         xlink:href="#path1917"
         y="0"
         x="0" />
      <use
         x="0"
         y="0"
         xlink:href="#path1917"
         id="use969"
         transform="matrix(0.71325,0,0,0.71325,465.97126,196.58107)"
         width="744.09448"
         height="1052.3622"
         style="filter:url(#filter6587)" />
      <path
         inkscape:connector-curvature="0"
         inkscape:export-ydpi="96"
         inkscape:export-xdpi="96"
         inkscape:export-filename="/home/donn/Projects/pythoning/fontyPython/designfiles/biglogo.png"
         sodipodi:nodetypes="csccccccccccccccccccccsc"
         id="path971"
         d="m 340.91504,322.40236 c -16.7798,0.59339 -31.16187,4.53442 -42.99135,12.24368 -12.81594,8.35225 -20.91386,19.74891 -24.16043,34.24682 l -22.91692,99.54644 h 52.40681 l 6.21777,-26.43925 h 27.8911 20.78503 c 16.62838,0 53.48872,-2.47747 60.40108,-37.61827 l 5.86244,-35.31148 c 3.88956,-30.24115 -13.28628,-45.10468 -44.76785,-46.84539 h -14.92258 -19.5415 z m -6.21778,40.10248 h 20.78509 25.40395 l -7.63895,34.42427 c -0.78301,3.15115 -4.99529,4.62761 -7.10603,4.61356 h -19.5415 -27.89111 l 7.63901,-32.64981 c 0.51249,-2.83646 1.28406,-4.51545 2.30944,-5.1459 1.05341,-0.69389 3.1389,-1.15753 6.0401,-1.24212 z"
         style="font-style:normal;font-variant:normal;font-weight:normal;font-stretch:normal;font-size:39.99996948px;line-height:125%;font-family:'Frozen Dog Treats';text-align:start;writing-mode:lr-tb;text-anchor:start;fill:#999999;fill-opacity:1;stroke:#ffffff;stroke-width:6.8358078;stroke-linecap:butt;stroke-linejoin:miter;stroke-miterlimit:4;stroke-dasharray:none;stroke-opacity:1"
         transform="matrix(0.53865,0,0,0.53865,207.79141,6.462195)" />
      <path
         inkscape:connector-curvature="0"
         style="font-style:normal;font-variant:normal;font-weight:normal;font-stretch:normal;font-size:39.99996948px;line-height:125%;font-family:'Frozen Dog Treats';text-align:start;writing-mode:lr-tb;text-anchor:start;fill:#768b94;fill-opacity:1;stroke:none;stroke-width:1px;stroke-linecap:butt;stroke-linejoin:miter;stroke-opacity:1"
         d="m 8.3440419,22.435837 h 9.8970071 c 2.476349,0 7.968655,-0.374557 8.998064,-5.614634 l 0.891891,-5.262158 C 28.710243,7.0495857 26.135075,4.8283208 21.446736,4.5687527 l -5.759445,0.013441 -0.924303,6.0128143 h 6.88638 l -1.139939,5.134561 c -0.116604,0.469889 -0.746073,0.682109 -1.06041,0.680013 l -12.012801,0.0138"
         id="path973"
         sodipodi:nodetypes="ccccccccccc"
         transform="matrix(3.6169615,0,0,3.6122709,334.68954,163.33399)" />
      <path
         inkscape:connector-curvature="0"
         sodipodi:nodetypes="cccccsccccscccc"
         id="path975"
         d="M 15.160497,22.43986 H 11.004028 L 10.08791,26.387673 H 2.2627323 L 5.6981761,11.54813 C 6.1816747,9.3862509 7.3777168,7.682584 9.2863062,6.4371248 11.194873,5.1917055 13.536061,4.5689858 16.309881,4.568964 l 2.928363,-2.113e-4 -1.374178,6.0262553 h -2.934977 c -0.534419,1.6e-5 -0.884073,0.06018 -1.062191,0.17766 -0.152702,0.09401 -0.267217,0.352498 -0.343545,0.775462 l -1.145147,4.864269 h 4.156468 l -1.374177,6.027461"
         style="font-style:normal;font-variant:normal;font-weight:normal;font-stretch:normal;font-size:36.68085098px;line-height:125%;font-family:'Frozen Dog Treats';text-align:start;writing-mode:lr-tb;text-anchor:start;fill:#090a0a;fill-opacity:1;stroke:none;stroke-width:1px;stroke-linecap:butt;stroke-linejoin:miter;stroke-opacity:1"
         transform="matrix(3.6169615,0,0,3.6122709,334.68954,163.33399)" />
      <path
         inkscape:connector-curvature="0"
         sodipodi:nodetypes="cscccccccccccccccccccccc"
         id="path977"
         d="m -802.94733,20.284783 c -11.89878,0.420779 -22.09731,3.215417 -30.48574,8.682149 -9.08794,5.922683 -14.83028,14.004194 -17.13247,24.28485 l -16.25067,70.589618 h 33.16233 l 4.4091,-19.7484 h 23.77792 14.73897 c 11.79135,0 37.92947,-0.75681 42.83116,-25.675579 l 4.15709,-25.039817 c 2.75812,-21.444382 -9.4215,-31.984295 -31.74544,-33.218652 h -10.58178 -13.85718 z m -6.48706,23.412706 h 18.37129 22.45376 l -6.75186,30.426529 c -0.69215,2.785209 -4.41522,4.090205 -6.28078,4.077788 h -17.27219 -24.65207 l 6.75186,-28.85814 c 0.45305,-2.507059 1.13502,-3.991064 2.04124,-4.548301 0.93114,-0.613308 2.77448,-1.023101 5.33875,-1.097876 z"
         style="font-style:normal;font-variant:normal;font-weight:normal;font-stretch:normal;font-size:39.99996948px;line-height:125%;font-family:'Frozen Dog Treats';text-align:start;writing-mode:lr-tb;text-anchor:start;opacity:0.33699999;fill:#ffffff;fill-opacity:1;stroke:none;stroke-width:4.53122997;stroke-linecap:butt;stroke-linejoin:miter;stroke-miterlimit:4;stroke-opacity:1;filter:url(#filter5563)"
         transform="matrix(0.71325,0,0,0.71325,964.53825,168.44127)" />
      <path
         inkscape:connector-curvature="0"
         style="font-style:normal;font-variant:normal;font-weight:normal;font-stretch:normal;font-size:39.99996948px;line-height:125%;font-family:'Frozen Dog Treats';text-align:start;writing-mode:lr-tb;text-anchor:start;opacity:0.24468085;fill:#ffffff;fill-opacity:1;stroke:none;stroke-width:4.53122997;stroke-linecap:butt;stroke-linejoin:miter;stroke-miterlimit:4;stroke-opacity:1;filter:url(#filter5563)"
         d="m -802.94733,20.284783 c -11.89878,0.420779 -22.09731,3.215417 -30.48574,8.682149 -9.08794,5.922683 -14.83028,14.004194 -17.13247,24.28485 l -16.25067,70.589618 h 33.16233 l 4.4091,-19.7484 h 23.77792 14.73897 c 11.79135,0 37.92947,-0.75681 42.83116,-25.675579 l 4.15709,-25.039817 c 2.75812,-21.444382 -9.4215,-31.984295 -31.74544,-33.218652 h -10.58178 -13.85718 z m -6.48706,23.412706 h 18.37129 22.45376 l -6.75186,30.426529 c -0.69215,2.785209 -4.41522,4.090205 -6.28078,4.077788 h -17.27219 -24.65207 l 6.75186,-28.85814 c 0.45305,-2.507059 1.13502,-3.991064 2.04124,-4.548301 0.93114,-0.613308 2.77448,-1.023101 5.33875,-1.097876 z"
         id="path979"
         sodipodi:nodetypes="cscccccccccccccccccccccc"
         transform="matrix(0.71325,0,0,0.71325,964.53825,168.44127)" />
      <path
         inkscape:connector-curvature="0"
         transform="matrix(0.6198357,0,0,0.628685,889.03579,174.27779)"
         sodipodi:nodetypes="cscccccccccccccccccccccc"
         id="path981"
         d="m -802.94733,20.284783 c -11.89878,0.420779 -22.09731,3.215417 -30.48574,8.682149 -9.08794,5.922683 -14.83028,14.004194 -17.13247,24.28485 l -16.25067,70.589618 h 26.20424 l 4.4091,-19.7484 h 30.73601 14.73897 c 11.79135,0 37.92947,-0.75681 42.83116,-25.675579 l 4.15709,-25.039817 c 2.75812,-21.444382 -9.4215,-31.984295 -31.74544,-33.218652 h -10.58178 -13.85718 z m -9.86668,19.044119 h 23.02326 28.1395 l -8.46157,38.131126 c -0.86741,3.490479 -5.53324,5.125926 -7.8712,5.110365 h -21.64585 -30.89446 l 8.46157,-36.16559 c 0.56777,-3.141896 1.42243,-5.00168 2.55812,-5.700021 1.16692,-0.768609 3.47703,-1.28217 6.69063,-1.37588 z"
         style="font-style:normal;font-variant:normal;font-weight:normal;font-stretch:normal;font-size:39.99996948px;line-height:125%;font-family:'Frozen Dog Treats';text-align:start;writing-mode:lr-tb;text-anchor:start;opacity:0.49468085;fill:#d2eff7;fill-opacity:1;stroke:none;stroke-width:4.53122997;stroke-linecap:butt;stroke-linejoin:miter;stroke-miterlimit:4;stroke-opacity:1;filter:url(#filter6603)" />
    </g>
    <text
       id="text1003"
       y="77.326767"
       x="485.55579"
       style="color:#000000;font-style:normal;font-variant:normal;font-weight:bold;font-stretch:normal;line-height:0%;font-family:Eczar;-inkscape-font-specification:'Eczar, Bold';text-indent:0;text-align:start;text-decoration:none;text-decoration-line:none;text-decoration-style:solid;text-decoration-color:#000000;letter-spacing:normal;word-spacing:normal;text-transform:none;writing-mode:lr-tb;direction:ltr;baseline-shift:baseline;text-anchor:start;white-space:normal;clip-rule:nonzero;display:inline;overflow:visible;visibility:visible;opacity:1;isolation:auto;mix-blend-mode:normal;color-interpolation:sRGB;color-interpolation-filters:linearRGB;solid-color:#000000;solid-opacity:1;fill-opacity:1;fill-rule:nonzero;color-rendering:auto;image-rendering:auto;shape-rendering:auto;text-rendering:auto;enable-background:accumulate"
       xml:space="preserve"><tspan
         style="font-size:53.65874863px;line-height:1.10000002;fill-opacity:1"
         y="77.326767"
         x="485.55579"
         id="tspan1001"
         sodipodi:role="line">fonty</tspan></text>
    <text
       xml:space="preserve"
       style="color:#000000;font-style:normal;font-variant:normal;font-weight:bold;font-stretch:normal;line-height:0%;font-family:Eczar;-inkscape-font-specification:'Eczar, Bold';text-indent:0;text-align:start;text-decoration:none;text-decoration-line:none;text-decoration-style:solid;text-decoration-color:#000000;letter-spacing:normal;word-spacing:normal;text-transform:none;writing-mode:lr-tb;direction:ltr;baseline-shift:baseline;text-anchor:start;white-space:normal;clip-rule:nonzero;display:inline;overflow:visible;visibility:visible;opacity:1;isolation:auto;mix-blend-mode:normal;color-interpolation:sRGB;color-interpolation-filters:linearRGB;solid-color:#000000;solid-opacity:1;fill-opacity:1;fill-rule:nonzero;color-rendering:auto;image-rendering:auto;shape-rendering:auto;text-rendering:auto;enable-background:accumulate"
       x="629.6272"
       y="77.648621"
       id="text1007"><tspan
         sodipodi:role="line"
         id="tspan1005"
         x="629.6272"
         y="77.648621"
         style="font-size:53.65874863px;line-height:1.10000002">python</tspan></text>
  </g>
  <g
     inkscape:groupmode="layer"
     id="layer2"
     inkscape:label="slices"
     style="display:none">
    <rect
       inkscape:export-ydpi="96"
       inkscape:export-xdpi="96"
       y="157"
       x="359"
       height="110"
       width="525"
       id="fphelplogo"
       style="opacity:0.2;fill:#ff0000;fill-opacity:1;stroke:none;stroke-width:1.97348583;stroke-linejoin:round;stroke-miterlimit:4;stroke-dasharray:none;stroke-opacity:1"
       inkscape:label="#rect2289"
       inkscape:export-filename="fphelplogo.png" />
    <rect
       inkscape:label="#rect2289"
       style="opacity:0.2;fill:#ff0000;fill-opacity:1;stroke:none;stroke-width:0.63772935;stroke-linejoin:round;stroke-miterlimit:4;stroke-dasharray:none;stroke-opacity:1"
       id="break"
       width="74"
       height="36"
       x="-151.69775"
       y="419.4212"
       inkscape:export-xdpi="96"
       inkscape:export-ydpi="96" />
  </g>
</svg>
