<?xml version="1.0" encoding="UTF-8" standalone="no"?>
<!-- Created with Inkscape (http://www.inkscape.org/) -->
<svg
   xmlns:dc="http://purl.org/dc/elements/1.1/"
   xmlns:cc="http://creativecommons.org/ns#"
   xmlns:rdf="http://www.w3.org/1999/02/22-rdf-syntax-ns#"
   xmlns:svg="http://www.w3.org/2000/svg"
   xmlns="http://www.w3.org/2000/svg"
   xmlns:xlink="http://www.w3.org/1999/xlink"
   xmlns:sodipodi="http://sodipodi.sourceforge.net/DTD/sodipodi-0.dtd"
   xmlns:inkscape="http://www.inkscape.org/namespaces/inkscape"
   width="32"
   height="32"
   id="svg2"
   sodipodi:version="0.32"
   inkscape:version="0.46"
   version="1.0"
   sodipodi:docbase="/home/donn/Projects/pythoning/fontyPython/dev/graphic_design"
   sodipodi:docname="help_header_logo.svg"
   inkscape:export-filename="/home/donn/Projects/pythoning/fontyPython/fp/fplogo.png"
   inkscape:export-xdpi="89.985931"
   inkscape:export-ydpi="89.985931"
   inkscape:output_extension="org.inkscape.output.svg.inkscape">
  <sodipodi:namedview
     id="base"
     pagecolor="#ffffff"
     bordercolor="#666666"
     borderopacity="1.0"
     gridtolerance="10000"
     guidetolerance="6.1"
     objecttolerance="10"
     inkscape:pageopacity="1"
     inkscape:pageshadow="2"
     inkscape:zoom="1.728"
     inkscape:cx="279.50523"
     inkscape:cy="-270.76791"
     inkscape:document-units="px"
     inkscape:current-layer="layer2"
     width="32px"
     height="32px"
     inkscape:window-width="1676"
     inkscape:window-height="977"
     inkscape:window-x="0"
     inkscape:window-y="0"
     showguides="false"
     inkscape:guide-bbox="true"
     inkscape:object-points="false"
     inkscape:grid-points="false"
     inkscape:guide-points="false"
     showgrid="false">
    <sodipodi:guide
       orientation="horizontal"
       position="28.9375"
       id="guide1946" />
    <sodipodi:guide
       orientation="horizontal"
       position="26.666667"
       id="guide1948" />
    <sodipodi:guide
       orientation="horizontal"
       position="20.716253"
       id="guide1950" />
    <sodipodi:guide
       orientation="horizontal"
       position="7.8359375"
       id="guide1956" />
    <sodipodi:guide
       orientation="horizontal"
       position="14.953125"
       id="guide1958" />
    <sodipodi:guide
       orientation="horizontal"
       position="21.820312"
       id="guide1960" />
  </sodipodi:namedview>
  <defs
     id="defs4">
    <linearGradient
       id="linearGradient3660">
      <stop
         id="stop3662"
         offset="0"
         style="stop-color:#414e54;stop-opacity:1;" />
      <stop
         id="stop3664"
         offset="1"
         style="stop-color:#768b94;stop-opacity:0;" />
    </linearGradient>
    <linearGradient
       id="linearGradient3648">
      <stop
         style="stop-color:#b1bdc2;stop-opacity:1;"
         offset="0"
         id="stop3650" />
      <stop
         style="stop-color:#768b94;stop-opacity:0;"
         offset="1"
         id="stop3652" />
    </linearGradient>
    <filter
       inkscape:collect="always"
       id="filter6603">
      <feGaussianBlur
         inkscape:collect="always"
         stdDeviation="3.6225052"
         id="feGaussianBlur6605" />
    </filter>
    <filter
       inkscape:collect="always"
       id="filter5563">
      <feGaussianBlur
         inkscape:collect="always"
         stdDeviation="1.8143196"
         id="feGaussianBlur5565" />
    </filter>
    <filter
       inkscape:collect="always"
       id="filter6587">
      <feGaussianBlur
         inkscape:collect="always"
         stdDeviation="4.3543671"
         id="feGaussianBlur6589" />
    </filter>
    <inkscape:perspective
       sodipodi:type="inkscape:persp3d"
       inkscape:vp_x="0 : 16 : 1"
       inkscape:vp_y="0 : 1000 : 0"
       inkscape:vp_z="32 : 16 : 1"
       inkscape:persp3d-origin="16 : 10.666667 : 1"
       id="perspective92" />
    <clipPath
       clipPathUnits="userSpaceOnUse"
       id="clipPath3714">
      <rect
         style="fill:#768b94;fill-opacity:1;stroke:#ffffff;stroke-width:0.89916426;stroke-linejoin:round;stroke-miterlimit:4;stroke-dasharray:none;stroke-opacity:1"
         id="rect3716"
         width="216.70116"
         height="225.37424"
         x="-497.9292"
         y="-180.80663"
         rx="4.1612115"
         ry="4.161212"
         inkscape:export-filename="/home/donn/Projects/pythoning/fontyPython/dev/dev-dec-2007/trunk/fontypython/things/aboutfplogo.png"
         inkscape:export-xdpi="89.985931"
         inkscape:export-ydpi="89.985931"
         transform="translate(271,-6)" />
    </clipPath>
    <filter
       inkscape:collect="always"
       id="filter3294">
      <feGaussianBlur
         inkscape:collect="always"
         stdDeviation="1.3272304"
         id="feGaussianBlur3296" />
    </filter>
  </defs>
  <metadata
     id="metadata7">
    <rdf:RDF>
      <cc:Work
         rdf:about="">
        <dc:format>image/svg+xml</dc:format>
        <dc:type
           rdf:resource="http://purl.org/dc/dcmitype/StillImage" />
      </cc:Work>
    </rdf:RDF>
  </metadata>
  <g
     inkscape:label="Layer 1"
     inkscape:groupmode="layer"
     id="layer1"
     style="display:inline">
    <rect
       transform="matrix(1,0,0,0.5667656,0,91.792286)"
       y="78"
       x="-244"
       height="337"
       width="959"
       id="rect4518"
       style="opacity:1;fill:#ffffff;fill-opacity:1;fill-rule:nonzero;stroke:none;stroke-width:0;stroke-linecap:round;stroke-linejoin:round;marker:none;marker-start:none;marker-mid:none;marker-end:none;stroke-miterlimit:0;stroke-dasharray:none;stroke-dashoffset:0;stroke-opacity:1;visibility:visible;display:inline;overflow:visible;enable-background:accumulate" />
    <path
       transform="matrix(1.1352628,0,0,0.9143958,72.184634,45.683173)"
       style="opacity:0.8;fill:#768b94;fill-opacity:1;fill-rule:evenodd;stroke:none;stroke-width:1;stroke-linecap:round;stroke-linejoin:round;marker:none;marker-start:none;marker-mid:none;marker-end:none;stroke-miterlimit:3;stroke-dashoffset:0;stroke-opacity:1;visibility:visible;display:inline;overflow:visible;enable-background:accumulate"
       d="M -224.01499,120.43427 C -224.01499,120.43427 440.53399,120.43427 440.53399,120.43427 C 440.53399,120.43427 441.71493,275.73105 441.71493,275.73105 C 441.71493,275.73105 434.36469,274.8742 434.36469,274.8742 C 434.36469,274.8742 429.7895,273.39516 429.7895,273.39516 C 429.7895,273.39516 425.57924,273.30729 425.57924,273.30729 C 425.57924,273.30729 419.43292,273.95511 419.43292,273.95511 C 419.43292,273.95511 414.2025,272.51915 414.2025,272.51915 C 414.2025,272.51915 408.66486,272.92369 408.66486,272.92369 C 408.66486,272.92369 403.57155,273.8348 403.57155,273.8348 C 403.57155,273.8348 398.40884,273.89072 398.40884,273.89072 C 398.40884,273.89072 393.59455,274.58365 393.59455,274.58365 C 393.59455,274.58365 389.06296,274.68002 389.06296,274.68002 C 389.06296,274.68002 382.82039,273.86224 382.82039,273.86224 C 382.82039,273.86224 377.64367,274.49917 377.64367,274.49917 C 377.64367,274.49917 371.61393,272.26201 371.61393,272.26201 C 371.61393,272.26201 368.56252,274.73029 368.56252,274.73029 C 368.56252,274.73029 359.78085,273.34341 359.78085,273.34341 C 359.78085,273.34341 357.22084,274.49 357.22084,274.49 C 357.22084,274.49 353.95759,272.56622 353.95759,272.56622 C 353.95759,272.56622 346.74798,272.68633 346.74798,272.68633 C 346.74798,272.68633 340.78527,273.91063 340.78527,273.91063 C 340.78527,273.91063 338.22434,271.52789 338.22434,271.52789 C 338.22434,271.52789 331.84459,274.24452 331.84459,274.24452 C 331.84459,274.24452 325.18484,273.70264 325.18484,273.70264 C 325.18484,273.70264 318.77546,273.21959 318.77546,273.21959 C 318.77546,273.21959 315.2312,273.91268 315.2312,273.91268 C 315.2312,273.91268 309.68551,274.56572 309.68551,274.56572 C 309.68551,274.56572 304.82936,273.74901 304.82936,273.74901 C 304.82936,273.74901 299.8446,272.17495 299.8446,272.17495 C 299.8446,272.17495 292.37947,273.86183 292.37947,273.86183 C 292.37947,273.86183 289.52328,274.14784 289.52328,274.14784 C 289.52328,274.14784 282.15014,273.58308 282.15014,273.58308 C 282.15014,273.58308 276.29738,273.65203 276.29738,273.65203 C 276.29738,273.65203 273.87306,273.85315 273.87306,273.85315 C 273.87306,273.85315 268.27475,273.7062 268.27475,273.7062 C 268.27475,273.7062 263.68921,273.84396 263.68921,273.84396 C 263.68921,273.84396 257.74458,273.846 257.74458,273.846 C 257.74458,273.846 250.70816,274.34976 250.70816,274.34976 C 250.70816,274.34976 247.71058,272.62831 247.71058,272.62831 C 247.71058,272.62831 240.40005,273.96537 240.40005,273.96537 C 240.40005,273.96537 236.07733,275.46417 236.07733,275.46417 C 236.07733,275.46417 230.6755,273.16978 230.6755,273.16978 C 230.6755,273.16978 226.39791,274.51773 226.39791,274.51773 C 226.39791,274.51773 221.90783,272.49794 221.90783,272.49794 C 221.90783,272.49794 215.99472,274.94982 215.99472,274.94982 C 215.99472,274.94982 211.32942,275.29001 211.32942,275.29001 C 211.32942,275.29001 205.10013,277.26836 205.10013,277.26836 C 205.10013,277.26836 200.73346,274.51988 200.73346,274.51988 C 200.73346,274.51988 196.58296,273.72085 196.58296,273.72085 C 196.58296,273.72085 188.78696,272.63016 188.78696,272.63016 C 188.78696,272.63016 184.71848,274.83203 184.71848,274.83203 C 184.71848,274.83203 178.77498,274.72343 178.77498,274.72343 C 178.77498,274.72343 174.56211,271.97605 174.56211,271.97605 C 174.56211,271.97605 167.11344,275.24187 167.11344,275.24187 C 167.11344,275.24187 162.83523,275.22295 162.83523,275.22295 C 162.83523,275.22295 158.15618,273.25615 158.15618,273.25615 C 158.15618,273.25615 153.06334,274.54801 153.06334,274.54801 C 153.06334,274.54801 151.07175,272.9875 151.07175,272.9875 C 151.07175,272.9875 142.41782,275.05709 142.41782,275.05709 C 142.41782,275.05709 137.64381,274.33864 137.64381,274.33864 C 137.64381,274.33864 134.33866,272.78556 134.33866,272.78556 C 134.33866,272.78556 128.02983,274.78423 128.02983,274.78423 C 128.02983,274.78423 122.365,273.74408 122.365,273.74408 C 122.365,273.74408 118.42205,271.79136 118.42205,271.79136 C 118.42205,271.79136 112.07125,272.80574 112.07125,272.80574 C 112.07125,272.80574 107.1454,272.47469 107.1454,272.47469 C 107.1454,272.47469 100.91585,276.74742 100.91585,276.74742 C 100.91585,276.74742 96.391309,276.56378 96.391309,276.56378 C 96.391309,276.56378 91.865689,272.74273 91.865689,272.74273 C 91.865689,272.74273 85.66773,273.87989 85.66773,273.87989 C 85.66773,273.87989 78.823269,274.7276 78.823269,274.7276 C 78.823269,274.7276 75.311983,273.92176 75.311983,273.92176 C 75.311983,273.92176 67.604323,276.28364 67.604323,276.28364 C 67.604323,276.28364 65.415815,273.14203 65.415815,273.14203 C 65.415815,273.14203 58.8788,274.76853 58.8788,274.76853 C 58.8788,274.76853 54.740627,273.50761 54.740627,273.50761 C 54.740627,273.50761 51.140986,273.65486 51.140986,273.65486 C 51.140986,273.65486 43.409549,272.43597 43.409549,272.43597 C 43.409549,272.43597 39.020933,274.5259 39.020933,274.5259 C 39.020933,274.5259 33.432967,274.99033 33.432967,274.99033 C 33.432967,274.99033 28.292045,273.82693 28.292045,273.82693 C 28.292045,273.82693 23.771017,274.48142 23.771017,274.48142 C 23.771017,274.48142 17.217211,272.55134 17.217211,272.55134 C 17.217211,272.55134 13.871873,272.614 13.871873,272.614 C 13.871873,272.614 7.9134904,274.57612 7.9134904,274.57612 C 7.9134904,274.57612 0.45609354,274.80668 0.45609354,274.80668 C 0.45609354,274.80668 -2.7044963,273.73274 -2.7044963,273.73274 C -2.7044963,273.73274 -7.6452735,273.3863 -7.6452735,273.3863 C -7.6452735,273.3863 -10.307207,276.84326 -10.307207,276.84326 C -10.307207,276.84326 -16.993052,272.84052 -16.993052,272.84052 C -16.993052,272.84052 -23.049048,272.02669 -23.049048,272.02669 C -23.049048,272.02669 -28.378412,272.97827 -28.378412,272.97827 C -28.378412,272.97827 -33.883993,272.36219 -33.883993,272.36219 C -33.883993,272.36219 -36.460706,273.41184 -36.460706,273.41184 C -36.460706,273.41184 -45.253547,274.8998 -45.253547,274.8998 C -45.253547,274.8998 -50.756857,273.39398 -50.756857,273.39398 C -50.756857,273.39398 -54.715973,273.91369 -54.715973,273.91369 C -54.715973,273.91369 -60.043219,273.75346 -60.043219,273.75346 C -60.043219,273.75346 -65.31343,273.85562 -65.31343,273.85562 C -65.31343,273.85562 -69.310111,273.3542 -69.310111,273.3542 C -69.310111,273.3542 -76.589717,275.5634 -76.589717,275.5634 C -76.589717,275.5634 -79.61166,274.77059 -79.61166,274.77059 C -79.61166,274.77059 -86.43135,272.96885 -86.43135,272.96885 C -86.43135,272.96885 -91.124505,274.00038 -91.124505,274.00038 C -91.124505,274.00038 -96.519194,275.30739 -96.519194,275.30739 C -96.519194,275.30739 -102.39156,273.32615 -102.39156,273.32615 C -102.39156,273.32615 -106.93255,273.55741 -106.93255,273.55741 C -106.93255,273.55741 -113.66427,275.731 -113.66427,275.731 C -113.66427,275.731 -118.10653,273.85147 -118.10653,273.85147 C -118.10653,273.85147 -122.48707,273.88658 -122.48707,273.88658 C -122.48707,273.88658 -127.73629,273.80943 -127.73629,273.80943 C -127.73629,273.80943 -131.86043,275.49221 -131.86043,275.49221 C -131.86043,275.49221 -136.96174,276.15003 -136.96174,276.15003 C -136.96174,276.15003 -143.64692,276.13536 -143.64692,276.13536 C -143.64692,276.13536 -148.01551,276.04624 -148.01551,276.04624 C -148.01551,276.04624 -154.33672,272.55183 -154.33672,272.55183 C -154.33672,272.55183 -159.15873,274.41263 -159.15873,274.41263 C -159.15873,274.41263 -164.70343,274.26135 -164.70343,274.26135 C -164.70343,274.26135 -169.28354,273.87129 -169.28354,273.87129 C -169.28354,273.87129 -174.96655,275.25138 -174.96655,275.25138 C -174.96655,275.25138 -179.87715,274.76643 -179.87715,274.76643 C -179.87715,274.76643 -184.55892,274.92082 -184.55892,274.92082 C -184.55892,274.92082 -191.77614,273.41382 -191.77614,273.41382 C -191.77614,273.41382 -194.25153,274.00625 -194.25153,274.00625 C -194.25153,274.00625 -200.24437,273.90688 -200.24437,273.90688 C -200.24437,273.90688 -205.67614,274.49362 -205.67614,274.49362 C -205.67614,274.49362 -208.11706,274.53546 -208.11706,274.53546 C -208.11706,274.53546 -216.62156,272.72353 -216.62156,272.72353 C -216.62156,272.72353 -219.67638,273.81184 -219.67638,273.81184 C -219.67638,273.81184 -225.09868,273.91702 -225.09868,273.91702 C -225.09868,273.91702 -228.6567,267.15863 -228.6567,267.15863 C -228.6567,267.15863 -227.67867,259.75036 -227.67867,259.75036 C -227.67867,259.75036 -227.05293,254.41992 -227.05293,254.41992 C -227.05293,254.41992 -227.4878,246.51837 -227.4878,246.51837 C -227.4878,246.51837 -229.48777,238.97836 -229.48777,238.97836 C -229.48777,238.97836 -228.6812,235.49669 -228.6812,235.49669 C -228.6812,235.49669 -225.80175,227.14858 -225.80175,227.14858 C -225.80175,227.14858 -227.2394,220.68417 -227.2394,220.68417 C -227.2394,220.68417 -224.82776,214.0972 -224.82776,214.0972 C -224.82776,214.0972 -227.7545,204.04169 -227.7545,204.04169 C -227.7545,204.04169 -229.14855,195.64843 -229.14855,195.64843 C -229.14855,195.64843 -225.5763,194.68816 -225.5763,194.68816 C -225.5763,194.68816 -226.29049,186.71823 -226.29049,186.71823 C -226.29049,186.71823 -227.15937,183.63469 -227.15937,183.63469 C -227.15937,183.63469 -229.59474,171.56338 -229.59474,171.56338 C -229.59474,171.56338 -226.0544,165.78019 -226.0544,165.78019 C -226.0544,165.78019 -228.54993,156.98543 -228.54993,156.98543 C -228.54993,156.98543 -227.92666,151.21295 -227.92666,151.21295 C -227.92666,151.21295 -226.51848,147.79468 -226.51848,147.79468 C -226.51848,147.79468 -228.80662,138.35495 -228.80662,138.35495 C -228.80662,138.35495 -226.40003,131.29965 -226.40003,131.29965 C -226.40003,131.29965 -224.34486,126.27325 -224.34486,126.27325"
       id="path2447"
       sodipodi:nodetypes="ccccccccccccccccccccccccccccccccccccccccccccccccccccccccccccccccccccccccccccccccccccccccccccccccccccccccccccccccccccccccccccccccccccccccccccccccccccccccc" />
    <path
       sodipodi:nodetypes="ccccccccccccccccccccccccccccccccccccc"
       id="rect3298"
       d="M -229.43958,120.77494 C -229.43958,120.77494 439.8975,120.6445 439.8975,120.6445 C 439.8975,120.6445 440.12455,333.38646 440.12455,333.38646 C 440.12455,333.38646 -227.06799,334.02909 -227.06799,334.02909 C -227.06799,334.02909 -227.50134,327.99649 -227.50134,327.99649 C -227.50134,327.99649 -225.9292,321.33631 -225.9292,321.33631 C -225.9292,321.33631 -226.96121,313.65788 -226.96121,313.65788 C -226.96121,313.65788 -226.98731,307.21234 -226.98731,307.21234 C -226.98731,307.21234 -227.00299,300.54762 -227.00299,300.54762 C -227.00299,300.54762 -228.20403,292.35525 -228.20403,292.35525 C -228.20403,292.35525 -228.01838,286.96767 -228.01838,286.96767 C -228.01838,286.96767 -228.72082,280.81003 -228.72082,280.81003 C -228.72082,280.81003 -226.70125,273.84428 -226.70125,273.84428 C -226.70125,273.84428 -228.65145,267.06346 -228.65145,267.06346 C -228.65145,267.06346 -227.20932,260.53092 -227.20932,260.53092 C -227.20932,260.53092 -228.58806,253.60098 -228.58806,253.60098 C -228.58806,253.60098 -228.23111,247.70786 -228.23111,247.70786 C -228.23111,247.70786 -228.03328,239.09588 -228.03328,239.09588 C -228.03328,239.09588 -228.68976,235.59448 -228.68976,235.59448 C -228.68976,235.59448 -226.3259,226.20576 -226.3259,226.20576 C -226.3259,226.20576 -227.14933,220.5651 -227.14933,220.5651 C -227.14933,220.5651 -226.96877,213.84784 -226.96877,213.84784 C -226.96877,213.84784 -227.34172,206.61409 -227.34172,206.61409 C -227.34172,206.61409 -229.04991,198.47961 -229.04991,198.47961 C -229.04991,198.47961 -226.97496,193.58914 -226.97496,193.58914 C -226.97496,193.58914 -227.22361,186.60982 -227.22361,186.60982 C -227.22361,186.60982 -227.13315,182.91904 -227.13315,182.91904 C -227.13315,182.91904 -227.77147,173.4932 -227.77147,173.4932 C -227.77147,173.4932 -226.04858,165.7834 -226.04858,165.7834 C -226.04858,165.7834 -227.83045,158.09025 -227.83045,158.09025 C -227.83045,158.09025 -227.81664,151.69683 -227.81664,151.69683 C -227.81664,151.69683 -227.62067,149.72287 -227.62067,149.72287 C -227.62067,149.72287 -228.39939,139.68638 -228.39939,139.68638 C -228.39939,139.68638 -226.52506,131.36698 -226.52506,131.36698 C -226.52506,131.36698 -224.48569,126.70102 -224.48569,126.70102 C -224.48569,126.70102 -227.35156,121.15187 -227.35156,121.15187 C -227.35156,121.15187 -228.58349,120.6445 -228.58349,120.6445"
       style="opacity:0.8;fill:#768b94;fill-opacity:1;fill-rule:evenodd;stroke:none;stroke-width:1;stroke-linecap:round;stroke-linejoin:round;marker:none;marker-start:none;marker-mid:none;marker-end:none;stroke-miterlimit:3;stroke-dashoffset:0;stroke-opacity:1;visibility:visible;display:inline;overflow:visible;enable-background:accumulate"
       transform="matrix(1.1352628,0,0,0.9143958,686.76797,-220.28905)" />
    <text
       inkscape:transform-center-y="51.29649"
       inkscape:transform-center-x="-66.883339"
       transform="matrix(2.4749611,1.8981826,-1.8981826,2.4749611,596.26943,-713.45462)"
       sodipodi:linespacing="100%"
       id="text2539"
       y="398.66666"
       x="-30.833334"
       style="font-size:32px;font-style:normal;font-variant:normal;font-weight:400;font-stretch:normal;text-indent:0;text-align:center;text-decoration:none;line-height:100%;letter-spacing:normal;word-spacing:normal;text-transform:none;direction:ltr;block-progression:tb;writing-mode:lr-tb;text-anchor:start;fill:#ffffff;fill-opacity:1;fill-rule:nonzero;stroke:none;stroke-width:0;stroke-linecap:butt;stroke-linejoin:miter;marker:none;marker-start:none;marker-mid:none;marker-end:none;stroke-miterlimit:0;stroke-dasharray:none;stroke-dashoffset:0;stroke-opacity:1;visibility:visible;display:inline;overflow:visible;enable-background:accumulate;font-family:IM FELL FLOWERS 2;-inkscape-font-specification:Bitstream Vera Sans"
       xml:space="preserve"><tspan
         y="398.66666"
         x="-30.833334"
         id="tspan2541"
         sodipodi:role="line">a</tspan></text>
    <g
       transform="translate(0,-3)"
       id="g2628">
      <g
         id="g2514"
         transform="matrix(1.5690614,0,8.2025729e-3,1.5690614,-3062.9466,-1001.3297)"
         style="fill:#000000;fill-opacity:0.53617021;filter:url(#filter3294)">
        <text
           transform="matrix(1,0,-0.1880747,1,0,0)"
           xml:space="preserve"
           style="font-size:40.43667984px;font-style:normal;font-variant:normal;font-weight:800;font-stretch:normal;text-align:start;line-height:110.00000238%;writing-mode:lr-tb;text-anchor:start;fill:#000000;fill-opacity:0.53617021;stroke:none;stroke-width:1.5;stroke-linecap:butt;stroke-linejoin:miter;stroke-miterlimit:4;stroke-dasharray:none;stroke-opacity:1;font-family:BlendfontsMonokultur;-inkscape-font-specification:BlendfontsMonokultur Ultra-Bold"
           x="2069.134"
           y="796.29364"
           id="text2516"
           sodipodi:linespacing="110%"><tspan
             dx="0 -3.6128471 -3.0503321 -2.1848986 -0.26893279"
             sodipodi:role="line"
             id="tspan2518"
             x="2069.134"
             y="796.29364"
             dy="0 0 0 0 -0.18470658">Fonty</tspan></text>
        <text
           transform="matrix(1,0,-0.1880747,1,100.87061,-32.092115)"
           sodipodi:linespacing="110%"
           id="text2520"
           y="828.6283"
           x="2069.0386"
           style="font-size:40.43667984px;font-style:normal;font-variant:normal;font-weight:800;font-stretch:normal;text-align:start;line-height:110.00000238%;writing-mode:lr-tb;text-anchor:start;fill:#000000;fill-opacity:0.53617021;stroke:none;stroke-width:1.5;stroke-linecap:butt;stroke-linejoin:miter;stroke-miterlimit:4;stroke-dasharray:none;stroke-opacity:1;font-family:BlendfontsMonokultur;-inkscape-font-specification:BlendfontsMonokultur Ultra-Bold"
           xml:space="preserve"><tspan
             dx="0 -1.4935142 5.7280399e-08 -0.7574861 -3.0768514 -3.4490631"
             y="828.6283"
             x="2069.0386"
             id="tspan2522"
             sodipodi:role="line">Python</tspan></text>
      </g>
      <g
         transform="matrix(1.5690614,0,8.2025729e-3,1.5690614,-3066.9466,-1005.3297)"
         id="g4570">
        <text
           sodipodi:linespacing="110%"
           id="text4525"
           y="796.29364"
           x="2069.134"
           style="font-size:40.43667984px;font-style:normal;font-variant:normal;font-weight:800;font-stretch:normal;text-align:start;line-height:110.00000238%;writing-mode:lr-tb;text-anchor:start;fill:#dbdee3;fill-opacity:1;stroke:none;stroke-width:1.5;stroke-linecap:butt;stroke-linejoin:miter;stroke-miterlimit:4;stroke-dasharray:none;stroke-opacity:1;font-family:BlendfontsMonokultur;-inkscape-font-specification:BlendfontsMonokultur Ultra-Bold"
           xml:space="preserve"
           transform="matrix(1,0,-0.1880747,1,0,0)"><tspan
             dy="0 0 0 0 -0.18470658"
             y="796.29364"
             x="2069.134"
             id="tspan4527"
             sodipodi:role="line"
             dx="0 -3.6128471 -3.0503321 -2.1848986 -0.26893279">Fonty</tspan></text>
        <text
           xml:space="preserve"
           style="font-size:40.43667984px;font-style:normal;font-variant:normal;font-weight:800;font-stretch:normal;text-align:start;line-height:110.00000238%;writing-mode:lr-tb;text-anchor:start;fill:#ffffff;fill-opacity:1;stroke:none;stroke-width:1.5;stroke-linecap:butt;stroke-linejoin:miter;stroke-miterlimit:4;stroke-dasharray:none;stroke-opacity:1;font-family:BlendfontsMonokultur;-inkscape-font-specification:BlendfontsMonokultur Ultra-Bold"
           x="2069.0386"
           y="828.6283"
           id="text4529"
           sodipodi:linespacing="110%"
           transform="matrix(1,0,-0.1880747,1,100.87061,-32.092115)"><tspan
             sodipodi:role="line"
             id="tspan4531"
             x="2069.0386"
             y="828.6283"
             dx="0.88517177 -1.4935142 5.7280399e-08 -0.7574861 -3.0768514 -3.4490631">Python</tspan></text>
      </g>
    </g>
    <g
       transform="translate(-486.58333,-4.2222222)"
       id="g2587">
      <use
         style="filter:url(#filter6587)"
         height="1052.3622"
         width="744.09448"
         transform="matrix(0.71325,0,0,0.71325,465.97126,196.58107)"
         id="use2551"
         xlink:href="#path1917"
         y="0"
         x="0" />
      <use
         x="0"
         y="0"
         xlink:href="#path1917"
         id="use2553"
         transform="matrix(0.71325,0,0,0.71325,465.97126,196.58107)"
         width="744.09448"
         height="1052.3622"
         style="filter:url(#filter6587)" />
      <path
         inkscape:export-ydpi="89.985931"
         inkscape:export-xdpi="89.985931"
         inkscape:export-filename="/home/donn/Projects/pythoning/fontyPython/designfiles/biglogo.png"
         sodipodi:nodetypes="csccccccccccccccccccccsc"
         id="path2557"
         d="M 340.91504,322.40236 C 324.13524,322.99575 309.75317,326.93678 297.92369,334.64604 C 285.10775,342.99829 277.00983,354.39495 273.76326,368.89286 L 250.84634,468.4393 L 303.25315,468.4393 L 309.47092,442.00005 L 337.36202,442.00005 L 358.14705,442.00005 C 374.77543,442.00005 411.63577,439.52258 418.54813,404.38178 L 424.41057,369.0703 C 428.30013,338.82915 411.12429,323.96562 379.64272,322.22491 L 364.72014,322.22491 L 345.17864,322.22491 L 340.91504,322.40236 z M 334.69726,362.50484 L 355.48235,362.50484 L 380.8863,362.50484 L 373.24735,396.92911 C 372.46434,400.08026 368.25206,401.55672 366.14132,401.54267 L 346.59982,401.54267 L 318.70871,401.54267 L 326.34772,368.89286 C 326.86021,366.0564 327.63178,364.37741 328.65716,363.74696 C 329.71057,363.05307 331.79606,362.58943 334.69726,362.50484 z"
         style="font-size:39.99996948px;font-style:normal;font-variant:normal;font-weight:normal;font-stretch:normal;text-align:start;line-height:125%;writing-mode:lr-tb;text-anchor:start;fill:#999999;fill-opacity:1;stroke:#ffffff;stroke-width:6;stroke-linecap:butt;stroke-linejoin:miter;stroke-miterlimit:4;stroke-dasharray:none;stroke-opacity:1;font-family:Frozen Dog Treats"
         transform="matrix(0.53865,0,0,0.53865,207.79141,6.462195)" />
      <path
         style="font-size:39.99996948px;font-style:normal;font-variant:normal;font-weight:normal;font-stretch:normal;text-align:start;line-height:125%;writing-mode:lr-tb;text-anchor:start;fill:#768b94;fill-opacity:1;stroke:none;stroke-width:1px;stroke-linecap:butt;stroke-linejoin:miter;stroke-opacity:1;font-family:Frozen Dog Treats"
         d="M 8.3440419,22.435837 L 18.241049,22.435837 C 20.717398,22.435837 26.209704,22.06128 27.239113,16.821203 L 28.131004,11.559045 C 28.710243,7.0495857 26.135075,4.8283208 21.446736,4.5687527 L 15.687291,4.582194 L 14.762988,10.595008 L 21.649368,10.595008 L 20.509429,15.729569 C 20.392825,16.199458 19.763356,16.411678 19.449019,16.409582 L 7.436218,16.423384"
         id="path2561"
         sodipodi:nodetypes="ccccccccccc"
         transform="matrix(3.6169615,0,0,3.6122709,334.68954,163.33399)" />
      <path
         sodipodi:nodetypes="cccccsccccscccc"
         id="path2563"
         d="M 15.160497,22.43986 L 11.004028,22.43986 L 10.08791,26.387673 L 2.2627323,26.387673 L 5.6981761,11.54813 C 6.1816747,9.3862509 7.3777168,7.682584 9.2863062,6.4371248 C 11.194873,5.1917055 13.536061,4.5689858 16.309881,4.568964 L 19.238244,4.5687527 L 17.864066,10.595008 L 14.929089,10.595008 C 14.39467,10.595024 14.045016,10.655189 13.866898,10.772668 C 13.714196,10.866679 13.599681,11.125166 13.523353,11.54813 L 12.378206,16.412399 L 16.534674,16.412399 L 15.160497,22.43986"
         style="font-size:36.68085098px;font-style:normal;font-variant:normal;font-weight:normal;font-stretch:normal;text-align:start;line-height:125%;writing-mode:lr-tb;text-anchor:start;fill:#090a0a;fill-opacity:1;stroke:none;stroke-width:1px;stroke-linecap:butt;stroke-linejoin:miter;stroke-opacity:1;font-family:Frozen Dog Treats"
         transform="matrix(3.6169615,0,0,3.6122709,334.68954,163.33399)" />
      <path
         sodipodi:nodetypes="cscccccccccccccccccccccc"
         id="path2565"
         d="M -802.94733,20.284783 C -814.84611,20.705562 -825.04464,23.5002 -833.43307,28.966932 C -842.52101,34.889615 -848.26335,42.971126 -850.56554,53.251782 L -866.81621,123.8414 L -833.65388,123.8414 L -829.24478,104.093 L -805.46686,104.093 L -790.72789,104.093 C -778.93654,104.093 -752.79842,103.33619 -747.89673,78.417421 L -743.73964,53.377604 C -740.98152,31.933222 -753.16114,21.393309 -775.48508,20.158952 L -786.06686,20.158952 L -799.92404,20.158952 L -802.94733,20.284783 z M -809.43439,43.697489 L -791.0631,43.697489 L -768.60934,43.697489 L -775.3612,74.124018 C -776.05335,76.909227 -779.77642,78.214223 -781.64198,78.201806 L -798.91417,78.201806 L -823.56624,78.201806 L -816.81438,49.343666 C -816.36133,46.836607 -815.67936,45.352602 -814.77314,44.795365 C -813.842,44.182057 -811.99866,43.772264 -809.43439,43.697489 z"
         style="font-size:39.99996948px;font-style:normal;font-variant:normal;font-weight:normal;font-stretch:normal;text-align:start;line-height:125%;writing-mode:lr-tb;text-anchor:start;opacity:0.33699999;fill:#ffffff;fill-opacity:1;stroke:none;stroke-width:4.53122997;stroke-linecap:butt;stroke-linejoin:miter;stroke-miterlimit:4;stroke-opacity:1;filter:url(#filter5563);font-family:Frozen Dog Treats"
         transform="matrix(0.71325,0,0,0.71325,964.53825,168.44127)" />
      <path
         style="font-size:39.99996948px;font-style:normal;font-variant:normal;font-weight:normal;font-stretch:normal;text-align:start;line-height:125%;writing-mode:lr-tb;text-anchor:start;opacity:0.24468085;fill:#ffffff;fill-opacity:1;stroke:none;stroke-width:4.53122997;stroke-linecap:butt;stroke-linejoin:miter;stroke-miterlimit:4;stroke-opacity:1;filter:url(#filter5563);font-family:Frozen Dog Treats"
         d="M -802.94733,20.284783 C -814.84611,20.705562 -825.04464,23.5002 -833.43307,28.966932 C -842.52101,34.889615 -848.26335,42.971126 -850.56554,53.251782 L -866.81621,123.8414 L -833.65388,123.8414 L -829.24478,104.093 L -805.46686,104.093 L -790.72789,104.093 C -778.93654,104.093 -752.79842,103.33619 -747.89673,78.417421 L -743.73964,53.377604 C -740.98152,31.933222 -753.16114,21.393309 -775.48508,20.158952 L -786.06686,20.158952 L -799.92404,20.158952 L -802.94733,20.284783 z M -809.43439,43.697489 L -791.0631,43.697489 L -768.60934,43.697489 L -775.3612,74.124018 C -776.05335,76.909227 -779.77642,78.214223 -781.64198,78.201806 L -798.91417,78.201806 L -823.56624,78.201806 L -816.81438,49.343666 C -816.36133,46.836607 -815.67936,45.352602 -814.77314,44.795365 C -813.842,44.182057 -811.99866,43.772264 -809.43439,43.697489 z"
         id="path2567"
         sodipodi:nodetypes="cscccccccccccccccccccccc"
         transform="matrix(0.71325,0,0,0.71325,964.53825,168.44127)" />
      <path
         transform="matrix(0.6198357,0,0,0.628685,889.03579,174.27779)"
         sodipodi:nodetypes="cscccccccccccccccccccccc"
         id="path2569"
         d="M -802.94733,20.284783 C -814.84611,20.705562 -825.04464,23.5002 -833.43307,28.966932 C -842.52101,34.889615 -848.26335,42.971126 -850.56554,53.251782 L -866.81621,123.8414 L -840.61197,123.8414 L -836.20287,104.093 L -805.46686,104.093 L -790.72789,104.093 C -778.93654,104.093 -752.79842,103.33619 -747.89673,78.417421 L -743.73964,53.377604 C -740.98152,31.933222 -753.16114,21.393309 -775.48508,20.158952 L -786.06686,20.158952 L -799.92404,20.158952 L -802.94733,20.284783 z M -812.81401,39.328902 L -789.79075,39.328902 L -761.65125,39.328902 L -770.11282,77.460028 C -770.98023,80.950507 -775.64606,82.585954 -777.98402,82.570393 L -799.62987,82.570393 L -830.52433,82.570393 L -822.06276,46.404803 C -821.49499,43.262907 -820.64033,41.403123 -819.50464,40.704782 C -818.33772,39.936173 -816.02761,39.422612 -812.81401,39.328902 z"
         style="font-size:39.99996948px;font-style:normal;font-variant:normal;font-weight:normal;font-stretch:normal;text-align:start;line-height:125%;writing-mode:lr-tb;text-anchor:start;opacity:0.49468085;fill:#d2eff7;fill-opacity:1;stroke:none;stroke-width:4.53122997;stroke-linecap:butt;stroke-linejoin:miter;stroke-miterlimit:4;stroke-opacity:1;filter:url(#filter6603);font-family:Frozen Dog Treats" />
    </g>
    <text
       transform="matrix(0,3.404265,-3.404265,0,2266.0201,-107.85883)"
       sodipodi:linespacing="100%"
       id="text3312"
       y="528"
       x="69"
       style="font-size:32px;font-style:normal;font-variant:normal;font-weight:400;font-stretch:normal;text-indent:0;text-align:center;text-decoration:none;line-height:100%;letter-spacing:normal;word-spacing:normal;text-transform:none;direction:ltr;block-progression:tb;writing-mode:lr-tb;text-anchor:start;fill:#ffffff;fill-opacity:1;fill-rule:nonzero;stroke:none;stroke-width:0;stroke-linecap:butt;stroke-linejoin:miter;marker:none;marker-start:none;marker-mid:none;marker-end:none;stroke-miterlimit:0;stroke-dasharray:none;stroke-dashoffset:0;stroke-opacity:1;visibility:visible;display:inline;overflow:visible;enable-background:accumulate;font-family:IM FELL FLOWERS 2;-inkscape-font-specification:Bitstream Vera Sans"
       xml:space="preserve"><tspan
         y="528"
         x="69"
         id="tspan3314"
         sodipodi:role="line">stu</tspan></text>
    <path
       transform="translate(-1008.0347,381.01958)"
       style="font-size:39.99996948px;font-style:normal;font-variant:normal;font-weight:normal;font-stretch:normal;text-align:start;line-height:125%;writing-mode:lr-tb;text-anchor:start;fill-opacity:1;stroke:none;stroke-width:4.53122997;stroke-linecap:butt;stroke-linejoin:miter;stroke-miterlimit:4;stroke-dasharray:none;stroke-opacity:1;display:inline;font-family:Frozen Dog Treats"
       d="M 908.79657,-397.37303 C 896.12437,-396.9249 885.26297,-393.94861 876.32927,-388.12654 C 866.65067,-381.81888 860.53507,-373.21207 858.08317,-362.26317 L 840.77627,-287.08521 L 880.35417,-287.08521 L 885.04987,-307.05226 L 906.11327,-307.05226 L 921.81027,-307.05226 C 934.36807,-307.05226 962.20517,-308.92326 967.42547,-335.46176 L 971.85277,-362.12917 C 974.79017,-384.96744 961.81887,-396.19245 938.04387,-397.50704 L 926.77427,-397.50704 L 912.01637,-397.50704 L 908.79657,-397.37303 z M 904.10087,-367.08744 L 919.79787,-367.08744 L 938.98307,-367.08744 L 933.21407,-341.09006 C 932.62267,-338.71029 929.44157,-337.59526 927.84757,-337.60587 L 913.08967,-337.60587 L 892.02617,-337.60587 L 897.79517,-362.26317 C 898.18227,-364.40528 898.76497,-365.67326 899.53927,-366.14938 C 900.33487,-366.67341 901.90987,-367.02355 904.10087,-367.08744 z"
       id="path1917"
       sodipodi:nodetypes="csccccccccccccccccccccsc"
       inkscape:export-filename="/home/donn/Projects/pythoning/fontyPython/designfiles/biglogo.png"
       inkscape:export-xdpi="89.985931"
       inkscape:export-ydpi="89.985931" />
    <g
       transform="matrix(1.2022767,0,0,1.2022767,123.04892,-34.674508)"
       id="g2617">
      <g
         transform="translate(591.0645,-137.64166)"
         id="g2597"
         style="opacity:1;display:inline">
        <text
           sodipodi:linespacing="125%"
           transform="matrix(1.6495501,0,0,1.6495501,283.52995,-245.90538)"
           id="text2599"
           y="393"
           x="-499"
           style="font-size:20px;font-style:normal;font-variant:normal;font-weight:normal;font-stretch:normal;text-align:start;line-height:125%;writing-mode:lr-tb;text-anchor:start;fill:#94a4ab;fill-opacity:1;stroke:none;stroke-width:1px;stroke-linecap:butt;stroke-linejoin:miter;stroke-opacity:1;font-family:BlendfontsWuestling;-inkscape-font-specification:BlendfontsWuestling"
           xml:space="preserve"><tspan
             y="393"
             x="-499"
             id="tspan2601"
             sodipodi:role="line">Bring out your fonts!</tspan></text>
        <text
           sodipodi:linespacing="125%"
           transform="matrix(1.045403,0,0,1.045403,-21.361831,-10.357622)"
           id="text2603"
           y="393"
           x="-499"
           style="font-size:20px;font-style:normal;font-variant:normal;font-weight:normal;font-stretch:normal;text-align:start;line-height:125%;writing-mode:lr-tb;text-anchor:start;fill:#c1cace;fill-opacity:1;stroke:none;stroke-width:1px;stroke-linecap:butt;stroke-linejoin:miter;stroke-opacity:1;font-family:Rough Draft;-inkscape-font-specification:Rough Draft"
           xml:space="preserve"><tspan
             y="393"
             x="-499"
             id="tspan2605"
             sodipodi:role="line">Bring out your fonts!</tspan></text>
        <text
           xml:space="preserve"
           style="font-size:20px;font-style:normal;font-variant:normal;font-weight:normal;font-stretch:normal;text-align:start;line-height:125%;writing-mode:lr-tb;text-anchor:start;fill:#b2bdc2;fill-opacity:1;stroke:none;stroke-width:1px;stroke-linecap:butt;stroke-linejoin:miter;stroke-opacity:1;font-family:IM FELL English PRO;-inkscape-font-specification:IM FELL English PRO"
           x="-499"
           y="393"
           id="text2607"
           transform="matrix(1.4972432,0,0,1.4972432,208.20529,-187.27928)"
           sodipodi:linespacing="125%"><tspan
             sodipodi:role="line"
             id="tspan2609"
             x="-499"
             y="393">Bring out your fonts!</tspan></text>
      </g>
      <text
         xml:space="preserve"
         style="font-size:20px;font-style:normal;font-variant:normal;font-weight:800;font-stretch:normal;text-align:start;line-height:125%;writing-mode:lr-tb;text-anchor:start;fill:#ffffff;fill-opacity:1;stroke:none;stroke-width:1px;stroke-linecap:butt;stroke-linejoin:miter;stroke-opacity:1;display:inline;font-family:BlendfontsMonokultur;-inkscape-font-specification:BlendfontsMonokultur Ultra-Bold"
         x="-499"
         y="393"
         id="text2611"
         transform="matrix(1.2290398,0,0,1.2290398,667.21644,-220.30291)"
         sodipodi:linespacing="125%"><tspan
           sodipodi:role="line"
           id="tspan2613"
           x="-499"
           y="393">Bring out your fonts!</tspan></text>
    </g>
    <rect
       y="300.75"
       x="-199.30556"
       height="93.75"
       width="796.52777"
       id="rect2615"
       style="opacity:1;fill:#ffffff;fill-opacity:1;fill-rule:nonzero;stroke:none;stroke-width:0;stroke-linecap:round;stroke-linejoin:round;marker:none;marker-start:none;marker-mid:none;marker-end:none;stroke-miterlimit:0;stroke-dasharray:none;stroke-dashoffset:0;stroke-opacity:1;visibility:visible;display:inline;overflow:visible;enable-background:accumulate"
       transform="matrix(1,0,0,0.962963,0,14.611111)" />
    <g
       transform="matrix(0.6078307,0,0,0.6078307,-246.2925,137.86847)"
       id="g2547">
      <text
         inkscape:transform-center-y="19.716947"
         inkscape:transform-center-x="-25.708071"
         transform="matrix(0.9513057,0.7296082,-0.7296082,0.9513057,497.43808,179.62445)"
         sodipodi:linespacing="100%"
         id="text4380"
         y="398.66666"
         x="-30.833334"
         style="font-size:32px;font-style:normal;font-variant:normal;font-weight:400;font-stretch:normal;text-indent:0;text-align:center;text-decoration:none;line-height:100%;letter-spacing:normal;word-spacing:normal;text-transform:none;direction:ltr;block-progression:tb;writing-mode:lr-tb;text-anchor:start;fill:#91a2a9;fill-opacity:1;fill-rule:nonzero;stroke:none;stroke-width:0;stroke-linecap:butt;stroke-linejoin:miter;marker:none;marker-start:none;marker-mid:none;marker-end:none;stroke-miterlimit:0;stroke-dasharray:none;stroke-dashoffset:0;stroke-opacity:1;visibility:visible;display:inline;overflow:visible;enable-background:accumulate;font-family:IM FELL FLOWERS 2;-inkscape-font-specification:Bitstream Vera Sans"
         xml:space="preserve"><tspan
           y="398.66666"
           x="-30.833334"
           id="tspan4382"
           sodipodi:role="line">a</tspan></text>
      <text
         xml:space="preserve"
         style="font-size:32px;font-style:normal;font-variant:normal;font-weight:400;font-stretch:normal;text-indent:0;text-align:center;text-decoration:none;line-height:100%;letter-spacing:normal;word-spacing:normal;text-transform:none;direction:ltr;block-progression:tb;writing-mode:lr-tb;text-anchor:start;fill:#91a2a9;fill-opacity:1;fill-rule:nonzero;stroke:none;stroke-width:0;stroke-linecap:butt;stroke-linejoin:miter;marker:none;marker-start:none;marker-mid:none;marker-end:none;stroke-miterlimit:0;stroke-dasharray:none;stroke-dashoffset:0;stroke-opacity:1;visibility:visible;display:inline;overflow:visible;enable-background:accumulate;font-family:IM FELL FLOWERS 2;-inkscape-font-specification:Bitstream Vera Sans"
         x="-30.833334"
         y="398.66666"
         id="text2543"
         sodipodi:linespacing="100%"
         transform="matrix(-0.9513057,0.7296082,0.7296082,0.9513057,-127.25982,179.62445)"
         inkscape:transform-center-x="25.708071"
         inkscape:transform-center-y="19.716947"><tspan
           sodipodi:role="line"
           id="tspan2545"
           x="-30.833334"
           y="398.66666">a</tspan></text>
    </g>
  </g>
  <g
     inkscape:groupmode="layer"
     id="layer2"
     inkscape:label="slices"
     style="display:none">
    <rect
       transform="matrix(3.507134,0,0,0.6478114,1558.0148,273.12859)"
       inkscape:export-ydpi="89.985931"
       inkscape:export-xdpi="89.985931"
       y="-180.80663"
       x="-497.9292"
       height="225.37424"
       width="216.70116"
       id="fphelplogo"
       style="opacity:0.2;fill:#ff0000;fill-opacity:1;stroke:none;stroke-width:1.97348583;stroke-linejoin:round;stroke-miterlimit:4;stroke-dasharray:none;stroke-opacity:1"
       inkscape:label="#rect2289" />
    <rect
       inkscape:label="#rect2289"
       style="opacity:0.2;fill:#ff0000;fill-opacity:1;stroke:none;stroke-width:1.97348583;stroke-linejoin:round;stroke-miterlimit:4;stroke-dasharray:none;stroke-opacity:1"
       id="break"
       width="216.70116"
       height="225.37424"
       x="-497.9292"
       y="-180.80663"
       inkscape:export-xdpi="89.985931"
       inkscape:export-ydpi="89.985931"
       transform="matrix(0.3922453,0,0,0.2662239,19.020718,477.13504)" />
  </g>
</svg>
